<svg xmlns="http://www.w3.org/2000/svg" xmlns:xlink="http://www.w3.org/1999/xlink" width="500" zoomAndPan="magnify" viewBox="0 0 375 374.999991" height="500" preserveAspectRatio="xMidYMid meet" version="1.0"><defs><g/><clipPath id="7c7449f685"><path d="M 73.742188 133 L 199 133 L 199 175 L 73.742188 175 Z M 73.742188 133 " clip-rule="nonzero"/></clipPath><clipPath id="f5c5899e2d"><path d="M 159 110 L 300.992188 110 L 300.992188 178 L 159 178 Z M 159 110 " clip-rule="nonzero"/></clipPath><clipPath id="22f0022774"><path d="M 189 69.226562 L 232 69.226562 L 232 111 L 189 111 Z M 189 69.226562 " clip-rule="nonzero"/></clipPath></defs><g clip-path="url(#7c7449f685)"><path fill="#b1b27b" d="M 150.828125 133.210938 C 139.71875 139.417969 125.410156 141.792969 112.179688 141.503906 C 108.613281 141.425781 74.003906 142.527344 73.871094 151.625 C 73.746094 160.40625 89.507812 164.832031 94.769531 166.402344 C 100.160156 168.015625 105.363281 171.675781 110.886719 172.796875 C 128.34375 176.332031 149.523438 174.253906 167.050781 171.722656 C 170.753906 171.1875 174.613281 170.867188 178.253906 169.980469 C 181.578125 169.171875 185.007812 168.882812 188.273438 167.824219 C 197.285156 164.902344 205.003906 158.296875 192.121094 152.679688 C 184.035156 149.148438 161.425781 139.246094 150.828125 133.210938 Z M 150.828125 133.210938 " fill-opacity="1" fill-rule="evenodd"/></g><g clip-path="url(#f5c5899e2d)"><path fill="#b1b27b" d="M 198.015625 115.28125 C 187.6875 117.234375 178.292969 123.199219 169.632812 128.878906 C 166.359375 131.027344 163.078125 133.707031 159.464844 135.289062 C 163.574219 137.105469 203 145.128906 217.335938 149.882812 C 247.007812 159.722656 231.457031 175.535156 228.511719 177.71875 C 233.570312 177.066406 238.597656 176.792969 243.675781 176.425781 C 253.257812 175.730469 262.894531 175.472656 272.441406 176.761719 C 278.648438 169.863281 300.917969 158.941406 300.957031 149.875 C 300.996094 141.234375 269.898438 130.980469 257.546875 125.746094 C 246.894531 121.234375 237.101562 115.507812 226.667969 110.554688 C 220.847656 115.835938 214.175781 120.148438 207.535156 124.316406 C 204.269531 121.503906 200.910156 118.699219 198.015625 115.28125 Z M 198.015625 115.28125 " fill-opacity="1" fill-rule="evenodd"/></g><path fill="#3f432f" d="M 226.714844 110.578125 C 227.523438 111.570312 228.511719 111.707031 229.089844 113.023438 C 229.734375 114.496094 229.433594 116.082031 229.628906 117.625 C 229.945312 120.085938 232.394531 122.351562 234.832031 122.683594 C 234.589844 126.167969 232.261719 129.851562 229.496094 131.941406 C 231.851562 130.871094 233.621094 129.472656 235.367188 127.589844 C 235.601562 129.210938 237.101562 130.023438 238.589844 129.96875 C 237.949219 132.710938 236.28125 135.667969 233.875 137.28125 C 235.464844 136.789062 236.777344 136.003906 238.078125 135 C 238.824219 136.539062 240.453125 137.398438 242.125 137.136719 C 241.472656 139.84375 239.71875 142.535156 237.464844 144.203125 C 239.8125 143.140625 242.589844 142.738281 245.140625 142.972656 C 252.878906 143.679688 252.332031 150.570312 253.832031 156.332031 C 244.695312 152.554688 234.550781 151.332031 224.898438 149.484375 C 214.910156 147.574219 205.707031 144.675781 195.738281 142.679688 C 188.871094 141.304688 181.546875 140.644531 174.617188 139.175781 C 173.769531 138.976562 172.941406 138.785156 172.140625 138.597656 C 180.242188 137.832031 187.957031 134.332031 195.214844 130.863281 C 199.457031 128.835938 203.570312 126.710938 207.492188 124.28125 L 207.535156 124.316406 C 214.175781 120.148438 220.847656 115.835938 226.667969 110.554688 Z M 226.714844 110.578125 " fill-opacity="1" fill-rule="evenodd"/><path fill="#f3b739" d="M 239.152344 175.558594 C 243.367188 173.40625 246.128906 170.558594 245.078125 165.964844 C 244.476562 163.34375 242.851562 161.261719 240.894531 159.496094 C 235.46875 154.605469 228.621094 151.734375 221.726562 149.585938 C 230.058594 150.558594 241.304688 154.832031 246.363281 161.640625 C 249.074219 165.285156 250.890625 172.851562 246.15625 175.789062 C 243.984375 175.308594 241.355469 175.332031 239.152344 175.558594 Z M 239.152344 175.558594 " fill-opacity="1" fill-rule="evenodd"/><path fill="#3f432f" d="M 98.542969 159.035156 C 103.09375 155.765625 102.761719 160.675781 107.109375 158.980469 C 109.023438 158.234375 111.320312 159.707031 111.917969 157.535156 C 112.824219 154.222656 109.777344 152.203125 108.417969 150.335938 C 106.957031 148.332031 105.824219 145.621094 105.925781 143.066406 C 106.210938 144.765625 107.453125 146.75 108.789062 147.804688 C 109.9375 148.710938 111.355469 147.996094 111.203125 146.53125 C 111.023438 144.773438 109.273438 143.539062 108.324219 142.207031 C 106.585938 139.769531 105.722656 137.921875 105.414062 134.917969 C 105.601562 136.695312 106.949219 138.738281 108.164062 139.96875 C 108.75 140.566406 110.34375 141.195312 110.492188 139.84375 C 110.5625 139.207031 110.203125 138.558594 109.945312 138 C 109.429688 136.894531 108.859375 135.917969 108.128906 134.941406 C 106.617188 132.914062 105.785156 131.070312 105.214844 128.636719 C 105.394531 129.617188 106.117188 131.128906 106.796875 131.839844 C 107.523438 132.601562 108.382812 132.421875 108.296875 131.265625 C 108.195312 129.941406 106.910156 127.898438 106.300781 126.707031 C 105.457031 125.058594 104.957031 123.082031 104.910156 121.226562 C 104.988281 123.316406 103.960938 125.285156 102.84375 126.996094 C 102.027344 128.242188 101.09375 129.4375 100.761719 130.917969 C 100.496094 132.085938 101.230469 133.144531 102.472656 132.492188 C 103.289062 132.066406 103.851562 130.96875 104.152344 130.125 C 103.597656 132.144531 101.9375 133.773438 100.632812 135.320312 C 99.851562 136.246094 98.945312 137.34375 98.769531 138.585938 C 98.570312 140.015625 99.707031 140.664062 100.914062 139.925781 C 102.230469 139.117188 103.445312 137.691406 103.84375 136.171875 C 103.96875 138.78125 100.960938 141.730469 99.226562 143.269531 C 98.167969 144.210938 96.585938 145.742188 96.972656 147.355469 C 97.242188 148.460938 98.683594 148.605469 99.570312 148.273438 C 101.144531 147.6875 102.359375 146.148438 102.851562 144.566406 C 102.347656 147.691406 99.8125 149.726562 97.792969 151.929688 C 96.652344 153.175781 95.402344 154.464844 95.109375 156.199219 C 94.84375 157.757812 95.527344 159.125 97.253906 159.21875 C 97.691406 159.242188 98.179688 159.296875 98.542969 159.035156 Z M 98.542969 159.035156 " fill-opacity="1" fill-rule="evenodd"/><path fill="#3f432f" d="M 127.414062 156.898438 C 127.125 155.25 125.835938 153.984375 124.679688 152.875 C 122.574219 150.859375 120.03125 148.523438 120.117188 145.359375 C 120.613281 146.777344 121.5625 147.910156 123.046875 148.332031 C 124.171875 148.652344 125.304688 148.453125 125.539062 147.128906 C 125.769531 145.828125 124.183594 144.601562 123.359375 143.847656 C 121.480469 142.136719 119.132812 140.222656 119.316406 137.429688 C 119.796875 138.695312 120.589844 140.386719 121.796875 141.089844 C 123.128906 141.863281 124.558594 141.234375 124.125 139.5625 C 123.878906 138.609375 122.753906 137.859375 122.09375 137.199219 C 120.503906 135.617188 118.875 134.222656 118.628906 131.835938 C 119.101562 133.203125 120.128906 134.703125 121.394531 135.433594 C 122.023438 135.792969 123.671875 135.96875 123.449219 134.757812 C 123.242188 133.636719 121.628906 132.503906 120.890625 131.703125 C 119.386719 130.070312 118.394531 128.375 117.945312 126.195312 C 117.714844 128.683594 114.167969 130.976562 113.585938 133.242188 C 113.308594 134.308594 114.070312 135.230469 115.164062 134.648438 C 116.175781 134.109375 116.789062 133.03125 117.238281 132.027344 C 117.261719 134.320312 115.035156 135.953125 113.472656 137.253906 C 112.828125 137.789062 111.480469 138.890625 111.789062 139.863281 C 112.078125 140.773438 113.320312 140.894531 114.09375 140.660156 C 115.429688 140.246094 116.613281 138.664062 117.152344 137.410156 C 117.25 139.953125 114.167969 141.996094 112.351562 143.273438 C 111.300781 144.011719 109.875 145.144531 110.089844 146.609375 C 110.242188 147.640625 111.320312 148.09375 112.269531 147.777344 C 113.769531 147.269531 115.09375 145.898438 115.960938 144.613281 C 115.242188 148.335938 110.28125 150.433594 108.222656 153.621094 C 107.28125 155.082031 106.5 157.253906 107.613281 158.84375 C 108.441406 160.03125 110.222656 160.117188 111.515625 159.894531 C 113.074219 159.621094 114.410156 158.597656 115.980469 158.382812 C 117.976562 158.109375 117.933594 159.136719 119.402344 159.6875 C 121.449219 160.453125 122.285156 159.003906 123.769531 158.980469 C 124.652344 158.96875 125.503906 159.539062 126.367188 159.152344 C 126.976562 158.875 127.6875 157.582031 127.414062 156.898438 Z M 127.414062 156.898438 " fill-opacity="1" fill-rule="evenodd"/><path fill="#b1b27b" d="M 133.257812 199.046875 C 131.332031 201.972656 130.058594 205.292969 128.75 208.523438 C 122.261719 209.289062 116.230469 208.558594 109.945312 206.886719 C 107.125 206.132812 104.398438 205.402344 102.113281 203.492188 C 100.019531 201.742188 97.460938 199.042969 97.628906 196.242188 C 98.160156 187.464844 111.796875 184.976562 118.558594 184.601562 C 111.882812 186.542969 105.046875 190.988281 113.644531 196.933594 C 109.722656 193.667969 112.050781 188.960938 115.777344 186.65625 C 117.207031 185.773438 118.839844 185.328125 120.417969 184.773438 C 123.484375 183.699219 126.585938 183.191406 129.761719 182.589844 C 139.878906 180.667969 150.195312 180.371094 160.304688 178.503906 C 156.613281 179.960938 152.652344 180.332031 148.773438 180.96875 C 140.808594 182.273438 130.585938 183.351562 123.246094 186.691406 C 110.09375 192.679688 126.480469 198.636719 133.257812 199.046875 Z M 133.257812 199.046875 " fill-opacity="1" fill-rule="evenodd"/><path fill="#f3b739" d="M 119.523438 202.164062 C 114.542969 202.613281 108.003906 200.890625 104.207031 197.34375 C 101.953125 195.238281 100.261719 191.886719 102.804688 189.414062 C 107.402344 184.949219 123.9375 181.96875 131.460938 181.753906 C 129.507812 181.9375 122.824219 183.203125 121.445312 183.640625 C 117.984375 184.742188 108.441406 187.234375 106.902344 191.738281 C 104.902344 197.578125 116.480469 201.992188 119.523438 202.164062 Z M 119.523438 202.164062 " fill-opacity="1" fill-rule="evenodd"/><path fill="#f3b739" d="M 153.175781 193.523438 C 163.113281 192.660156 203.160156 194.492188 213.140625 196.375 C 218.667969 197.417969 231.003906 199.019531 232.015625 205.902344 C 233.257812 214.355469 215.601562 218.691406 210.019531 220.101562 C 190.941406 224.929688 169.425781 225.039062 149.378906 224.796875 C 126.351562 224.515625 104.296875 218.949219 94.257812 209.898438 C 89.839844 205.910156 84.910156 198.523438 86.808594 192.207031 C 86.875 201.90625 95.027344 208.574219 103.175781 212.335938 C 118.804688 219.546875 136.433594 219.988281 153.355469 220.347656 C 162.832031 220.550781 229.660156 218.6875 222.519531 204.019531 C 218.222656 195.195312 165.910156 195.398438 153.175781 193.523438 Z M 153.175781 193.523438 " fill-opacity="1" fill-rule="evenodd"/><path fill="#b1b27b" d="M 220.328125 163.980469 C 220.328125 164.042969 220.28125 164.105469 220.1875 164.167969 C 220.097656 164.230469 219.960938 164.289062 219.78125 164.347656 C 219.601562 164.40625 219.382812 164.460938 219.121094 164.511719 C 218.859375 164.566406 218.5625 164.613281 218.230469 164.65625 C 217.898438 164.703125 217.535156 164.742188 217.144531 164.777344 C 216.753906 164.8125 216.339844 164.839844 215.90625 164.863281 C 215.472656 164.890625 215.023438 164.90625 214.5625 164.917969 C 214.101562 164.933594 213.636719 164.9375 213.164062 164.9375 C 212.695312 164.9375 212.230469 164.933594 211.769531 164.917969 C 211.308594 164.90625 210.859375 164.890625 210.425781 164.863281 C 209.988281 164.839844 209.578125 164.8125 209.1875 164.777344 C 208.796875 164.742188 208.433594 164.703125 208.101562 164.65625 C 207.769531 164.613281 207.472656 164.566406 207.210938 164.511719 C 206.949219 164.460938 206.730469 164.40625 206.546875 164.347656 C 206.367188 164.289062 206.234375 164.230469 206.140625 164.167969 C 206.050781 164.105469 206.003906 164.042969 206.003906 163.980469 C 206.003906 163.917969 206.050781 163.855469 206.140625 163.796875 C 206.234375 163.734375 206.367188 163.675781 206.546875 163.617188 C 206.730469 163.558594 206.949219 163.503906 207.210938 163.449219 C 207.472656 163.398438 207.769531 163.351562 208.101562 163.304688 C 208.433594 163.261719 208.796875 163.222656 209.1875 163.1875 C 209.578125 163.152344 209.988281 163.121094 210.425781 163.097656 C 210.859375 163.074219 211.308594 163.054688 211.769531 163.042969 C 212.230469 163.03125 212.695312 163.027344 213.164062 163.027344 C 213.636719 163.027344 214.101562 163.03125 214.5625 163.042969 C 215.023438 163.054688 215.472656 163.074219 215.90625 163.097656 C 216.339844 163.121094 216.753906 163.152344 217.144531 163.1875 C 217.535156 163.222656 217.898438 163.261719 218.230469 163.304688 C 218.5625 163.351562 218.859375 163.398438 219.121094 163.449219 C 219.382812 163.503906 219.601562 163.558594 219.78125 163.617188 C 219.960938 163.675781 220.097656 163.734375 220.1875 163.796875 C 220.28125 163.855469 220.328125 163.917969 220.328125 163.980469 Z M 220.328125 163.980469 " fill-opacity="1" fill-rule="nonzero"/><path fill="#b1b27b" d="M 219.769531 169.867188 C 219.769531 169.929688 219.699219 169.992188 219.554688 170.054688 C 219.414062 170.117188 219.203125 170.175781 218.921875 170.234375 C 218.644531 170.292969 218.300781 170.347656 217.894531 170.398438 C 217.488281 170.453125 217.027344 170.5 216.511719 170.542969 C 215.992188 170.589844 215.429688 170.628906 214.824219 170.664062 C 214.214844 170.699219 213.574219 170.726562 212.898438 170.753906 C 212.226562 170.777344 211.53125 170.792969 210.8125 170.804688 C 210.097656 170.820312 209.371094 170.824219 208.640625 170.824219 C 207.910156 170.824219 207.1875 170.820312 206.472656 170.804688 C 205.753906 170.792969 205.058594 170.777344 204.382812 170.753906 C 203.707031 170.726562 203.066406 170.699219 202.460938 170.664062 C 201.851562 170.628906 201.289062 170.589844 200.773438 170.542969 C 200.257812 170.5 199.796875 170.453125 199.390625 170.398438 C 198.984375 170.347656 198.640625 170.292969 198.363281 170.234375 C 198.082031 170.175781 197.871094 170.117188 197.726562 170.054688 C 197.585938 169.992188 197.515625 169.929688 197.515625 169.867188 C 197.515625 169.804688 197.585938 169.742188 197.726562 169.683594 C 197.871094 169.621094 198.082031 169.5625 198.363281 169.503906 C 198.640625 169.445312 198.984375 169.390625 199.390625 169.335938 C 199.796875 169.285156 200.257812 169.238281 200.773438 169.191406 C 201.289062 169.148438 201.851562 169.109375 202.460938 169.074219 C 203.066406 169.039062 203.707031 169.007812 204.382812 168.984375 C 205.058594 168.960938 205.753906 168.941406 206.472656 168.929688 C 207.1875 168.917969 207.910156 168.914062 208.640625 168.914062 C 209.371094 168.914062 210.097656 168.917969 210.8125 168.929688 C 211.53125 168.941406 212.226562 168.960938 212.898438 168.984375 C 213.574219 169.007812 214.214844 169.039062 214.824219 169.074219 C 215.429688 169.109375 215.992188 169.148438 216.511719 169.191406 C 217.027344 169.238281 217.488281 169.285156 217.894531 169.335938 C 218.300781 169.390625 218.644531 169.445312 218.921875 169.503906 C 219.203125 169.5625 219.414062 169.621094 219.554688 169.683594 C 219.699219 169.742188 219.769531 169.804688 219.769531 169.867188 Z M 219.769531 169.867188 " fill-opacity="1" fill-rule="nonzero"/><path fill="#b1b27b" d="M 221.9375 175.910156 C 221.9375 175.972656 221.875 176.035156 221.757812 176.097656 C 221.640625 176.160156 221.464844 176.21875 221.230469 176.277344 C 221 176.335938 220.710938 176.390625 220.375 176.441406 C 220.035156 176.492188 219.652344 176.542969 219.222656 176.585938 C 218.792969 176.628906 218.324219 176.671875 217.820312 176.707031 C 217.3125 176.738281 216.78125 176.769531 216.21875 176.792969 C 215.65625 176.816406 215.078125 176.835938 214.480469 176.847656 C 213.882812 176.859375 213.28125 176.867188 212.675781 176.867188 C 212.066406 176.867188 211.464844 176.859375 210.867188 176.847656 C 210.269531 176.835938 209.691406 176.816406 209.128906 176.792969 C 208.566406 176.769531 208.035156 176.738281 207.527344 176.707031 C 207.023438 176.671875 206.554688 176.628906 206.125 176.585938 C 205.695312 176.542969 205.3125 176.492188 204.972656 176.441406 C 204.636719 176.390625 204.351562 176.335938 204.117188 176.277344 C 203.882812 176.21875 203.707031 176.160156 203.589844 176.097656 C 203.472656 176.035156 203.410156 175.972656 203.410156 175.910156 C 203.410156 175.847656 203.472656 175.785156 203.589844 175.722656 C 203.707031 175.664062 203.882812 175.601562 204.117188 175.542969 C 204.351562 175.488281 204.636719 175.429688 204.972656 175.378906 C 205.3125 175.328125 205.695312 175.277344 206.125 175.234375 C 206.554688 175.191406 207.023438 175.148438 207.527344 175.117188 C 208.035156 175.082031 208.566406 175.050781 209.128906 175.027344 C 209.691406 175.003906 210.269531 174.984375 210.867188 174.972656 C 211.464844 174.960938 212.066406 174.953125 212.675781 174.953125 C 213.28125 174.953125 213.882812 174.960938 214.480469 174.972656 C 215.078125 174.984375 215.65625 175.003906 216.21875 175.027344 C 216.78125 175.050781 217.3125 175.082031 217.820312 175.117188 C 218.324219 175.148438 218.792969 175.191406 219.222656 175.234375 C 219.652344 175.277344 220.035156 175.328125 220.375 175.378906 C 220.710938 175.429688 220.996094 175.488281 221.230469 175.542969 C 221.464844 175.601562 221.640625 175.664062 221.757812 175.722656 C 221.875 175.785156 221.9375 175.847656 221.9375 175.910156 Z M 221.9375 175.910156 " fill-opacity="1" fill-rule="nonzero"/><path fill="#b1b27b" d="M 166.628906 183.230469 C 166.628906 183.285156 166.582031 183.339844 166.492188 183.394531 C 166.402344 183.449219 166.269531 183.5 166.09375 183.550781 C 165.914062 183.601562 165.699219 183.652344 165.441406 183.695312 C 165.183594 183.742188 164.894531 183.785156 164.566406 183.824219 C 164.238281 183.863281 163.882812 183.898438 163.5 183.929688 C 163.113281 183.960938 162.707031 183.984375 162.28125 184.007812 C 161.855469 184.027344 161.414062 184.042969 160.960938 184.054688 C 160.507812 184.066406 160.050781 184.070312 159.585938 184.070312 C 159.125 184.070312 158.667969 184.066406 158.214844 184.054688 C 157.757812 184.042969 157.320312 184.027344 156.890625 184.007812 C 156.464844 183.984375 156.058594 183.960938 155.675781 183.929688 C 155.289062 183.898438 154.933594 183.863281 154.609375 183.824219 C 154.28125 183.785156 153.988281 183.742188 153.730469 183.695312 C 153.476562 183.652344 153.257812 183.601562 153.082031 183.550781 C 152.90625 183.5 152.769531 183.449219 152.679688 183.394531 C 152.589844 183.339844 152.546875 183.285156 152.546875 183.230469 C 152.546875 183.175781 152.589844 183.121094 152.679688 183.066406 C 152.769531 183.011719 152.90625 182.960938 153.082031 182.910156 C 153.257812 182.859375 153.476562 182.808594 153.730469 182.761719 C 153.988281 182.71875 154.28125 182.675781 154.609375 182.636719 C 154.933594 182.597656 155.289062 182.5625 155.675781 182.53125 C 156.058594 182.5 156.464844 182.476562 156.890625 182.453125 C 157.320312 182.433594 157.757812 182.417969 158.214844 182.40625 C 158.667969 182.394531 159.125 182.390625 159.585938 182.390625 C 160.050781 182.390625 160.507812 182.394531 160.960938 182.40625 C 161.414062 182.417969 161.855469 182.433594 162.28125 182.453125 C 162.707031 182.476562 163.113281 182.5 163.5 182.53125 C 163.882812 182.5625 164.238281 182.597656 164.566406 182.636719 C 164.894531 182.675781 165.183594 182.71875 165.441406 182.761719 C 165.699219 182.808594 165.914062 182.859375 166.09375 182.910156 C 166.269531 182.960938 166.402344 183.011719 166.492188 183.066406 C 166.582031 183.121094 166.628906 183.175781 166.628906 183.230469 Z M 166.628906 183.230469 " fill-opacity="1" fill-rule="nonzero"/><path fill="#b1b27b" d="M 154.15625 186.371094 C 154.15625 186.457031 154.039062 186.542969 153.804688 186.621094 C 153.570312 186.703125 153.238281 186.773438 152.804688 186.835938 C 152.371094 186.898438 151.871094 186.945312 151.308594 186.976562 C 150.742188 187.011719 150.152344 187.027344 149.539062 187.027344 C 148.925781 187.027344 148.339844 187.011719 147.773438 186.976562 C 147.207031 186.945312 146.707031 186.898438 146.273438 186.835938 C 145.839844 186.773438 145.507812 186.703125 145.273438 186.621094 C 145.039062 186.542969 144.921875 186.457031 144.921875 186.371094 C 144.921875 186.285156 145.039062 186.203125 145.273438 186.121094 C 145.507812 186.039062 145.839844 185.96875 146.273438 185.910156 C 146.707031 185.847656 147.207031 185.800781 147.773438 185.765625 C 148.339844 185.734375 148.925781 185.714844 149.539062 185.714844 C 150.152344 185.714844 150.742188 185.734375 151.308594 185.765625 C 151.871094 185.800781 152.371094 185.847656 152.804688 185.910156 C 153.238281 185.96875 153.570312 186.039062 153.804688 186.121094 C 154.039062 186.203125 154.15625 186.285156 154.15625 186.371094 Z M 154.15625 186.371094 " fill-opacity="1" fill-rule="nonzero"/><path fill="#b1b27b" d="M 197.359375 201.101562 C 197.359375 201.164062 197.226562 201.226562 196.953125 201.285156 C 196.679688 201.347656 196.277344 201.40625 195.742188 201.460938 C 195.210938 201.519531 194.554688 201.574219 193.78125 201.625 C 193.003906 201.675781 192.125 201.722656 191.136719 201.769531 C 190.152344 201.8125 189.078125 201.851562 187.917969 201.886719 C 186.757812 201.917969 185.53125 201.949219 184.242188 201.972656 C 182.953125 201.996094 181.625 202.015625 180.257812 202.027344 C 178.886719 202.039062 177.507812 202.042969 176.113281 202.042969 C 174.714844 202.042969 173.335938 202.039062 171.964844 202.027344 C 170.597656 202.015625 169.269531 201.996094 167.980469 201.972656 C 166.691406 201.949219 165.464844 201.917969 164.304688 201.886719 C 163.144531 201.851562 162.074219 201.8125 161.085938 201.769531 C 160.097656 201.722656 159.21875 201.675781 158.441406 201.625 C 157.667969 201.574219 157.011719 201.519531 156.480469 201.460938 C 155.945312 201.40625 155.542969 201.347656 155.269531 201.285156 C 154.996094 201.226562 154.863281 201.164062 154.863281 201.101562 C 154.863281 201.039062 154.996094 200.980469 155.269531 200.917969 C 155.542969 200.859375 155.945312 200.796875 156.480469 200.742188 C 157.011719 200.683594 157.667969 200.628906 158.441406 200.578125 C 159.21875 200.527344 160.097656 200.480469 161.085938 200.4375 C 162.074219 200.390625 163.144531 200.351562 164.304688 200.320312 C 165.464844 200.285156 166.691406 200.253906 167.980469 200.230469 C 169.269531 200.207031 170.597656 200.191406 171.964844 200.179688 C 173.335938 200.164062 174.714844 200.160156 176.113281 200.160156 C 177.507812 200.160156 178.886719 200.164062 180.257812 200.179688 C 181.625 200.191406 182.953125 200.207031 184.242188 200.230469 C 185.53125 200.253906 186.757812 200.285156 187.917969 200.320312 C 189.078125 200.351562 190.152344 200.390625 191.136719 200.4375 C 192.125 200.480469 193.003906 200.527344 193.78125 200.578125 C 194.554688 200.628906 195.210938 200.683594 195.742188 200.742188 C 196.277344 200.796875 196.679688 200.859375 196.953125 200.917969 C 197.226562 200.980469 197.359375 201.039062 197.359375 201.101562 Z M 197.359375 201.101562 " fill-opacity="1" fill-rule="nonzero"/><path fill="#b1b27b" d="M 197.671875 206.285156 C 197.671875 206.347656 197.582031 206.40625 197.402344 206.46875 C 197.21875 206.527344 196.953125 206.589844 196.597656 206.644531 C 196.242188 206.703125 195.804688 206.757812 195.289062 206.808594 C 194.773438 206.859375 194.1875 206.90625 193.53125 206.949219 C 192.875 206.996094 192.160156 207.035156 191.390625 207.066406 C 190.617188 207.101562 189.804688 207.132812 188.945312 207.15625 C 188.085938 207.179688 187.203125 207.195312 186.292969 207.207031 C 185.382812 207.222656 184.464844 207.226562 183.535156 207.226562 C 182.605469 207.226562 181.6875 207.222656 180.777344 207.207031 C 179.867188 207.195312 178.984375 207.179688 178.125 207.15625 C 177.265625 207.132812 176.453125 207.101562 175.679688 207.066406 C 174.910156 207.035156 174.195312 206.996094 173.539062 206.949219 C 172.882812 206.90625 172.296875 206.859375 171.78125 206.808594 C 171.265625 206.757812 170.828125 206.703125 170.472656 206.644531 C 170.117188 206.589844 169.851562 206.527344 169.667969 206.46875 C 169.488281 206.40625 169.398438 206.347656 169.398438 206.285156 C 169.398438 206.222656 169.488281 206.160156 169.667969 206.101562 C 169.851562 206.039062 170.117188 205.980469 170.472656 205.925781 C 170.828125 205.867188 171.265625 205.8125 171.78125 205.761719 C 172.296875 205.710938 172.882812 205.664062 173.539062 205.617188 C 174.195312 205.574219 174.910156 205.535156 175.679688 205.5 C 176.453125 205.46875 177.265625 205.4375 178.125 205.414062 C 178.984375 205.390625 179.867188 205.371094 180.777344 205.359375 C 181.6875 205.347656 182.605469 205.34375 183.535156 205.34375 C 184.464844 205.34375 185.382812 205.347656 186.292969 205.359375 C 187.203125 205.371094 188.085938 205.390625 188.945312 205.414062 C 189.804688 205.4375 190.617188 205.46875 191.390625 205.5 C 192.160156 205.535156 192.875 205.574219 193.53125 205.617188 C 194.1875 205.664062 194.773438 205.710938 195.289062 205.761719 C 195.804688 205.8125 196.242188 205.867188 196.597656 205.925781 C 196.953125 205.980469 197.21875 206.039062 197.402344 206.101562 C 197.582031 206.160156 197.671875 206.222656 197.671875 206.285156 Z M 197.671875 206.285156 " fill-opacity="1" fill-rule="nonzero"/><path fill="#b1b27b" d="M 210.035156 209.398438 C 210.035156 209.449219 209.984375 209.503906 209.882812 209.554688 C 209.777344 209.605469 209.625 209.65625 209.421875 209.703125 C 209.21875 209.753906 208.96875 209.796875 208.671875 209.839844 C 208.378906 209.886719 208.042969 209.925781 207.667969 209.960938 C 207.289062 210 206.882812 210.03125 206.441406 210.0625 C 205.996094 210.089844 205.53125 210.113281 205.039062 210.136719 C 204.550781 210.15625 204.042969 210.171875 203.523438 210.179688 C 203 210.191406 202.476562 210.195312 201.945312 210.195312 C 201.410156 210.195312 200.886719 210.191406 200.363281 210.179688 C 199.84375 210.171875 199.335938 210.15625 198.847656 210.136719 C 198.355469 210.113281 197.890625 210.089844 197.449219 210.0625 C 197.003906 210.03125 196.597656 210 196.222656 209.960938 C 195.84375 209.925781 195.507812 209.886719 195.214844 209.839844 C 194.917969 209.796875 194.667969 209.753906 194.464844 209.703125 C 194.261719 209.65625 194.109375 209.605469 194.007812 209.554688 C 193.902344 209.503906 193.851562 209.449219 193.851562 209.398438 C 193.851562 209.347656 193.902344 209.292969 194.007812 209.242188 C 194.109375 209.191406 194.261719 209.140625 194.464844 209.09375 C 194.667969 209.046875 194.917969 209 195.214844 208.957031 C 195.507812 208.914062 195.84375 208.871094 196.222656 208.835938 C 196.597656 208.796875 197.003906 208.765625 197.449219 208.734375 C 197.890625 208.707031 198.355469 208.683594 198.847656 208.664062 C 199.335938 208.640625 199.84375 208.628906 200.363281 208.617188 C 200.886719 208.605469 201.410156 208.601562 201.945312 208.601562 C 202.476562 208.601562 203 208.605469 203.523438 208.617188 C 204.042969 208.628906 204.550781 208.640625 205.039062 208.664062 C 205.53125 208.683594 205.996094 208.707031 206.441406 208.734375 C 206.882812 208.765625 207.289062 208.796875 207.667969 208.835938 C 208.042969 208.871094 208.378906 208.914062 208.671875 208.957031 C 208.96875 209 209.21875 209.046875 209.421875 209.09375 C 209.625 209.140625 209.777344 209.191406 209.882812 209.242188 C 209.984375 209.292969 210.035156 209.347656 210.035156 209.398438 Z M 210.035156 209.398438 " fill-opacity="1" fill-rule="nonzero"/><path fill="#b1b27b" d="M 187.34375 212.46875 C 187.34375 212.503906 187.292969 212.542969 187.191406 212.582031 C 187.085938 212.617188 186.933594 212.65625 186.730469 212.695312 C 186.527344 212.730469 186.277344 212.769531 185.972656 212.804688 C 185.671875 212.839844 185.320312 212.875 184.921875 212.910156 C 184.523438 212.945312 184.078125 212.980469 183.585938 213.015625 C 183.09375 213.046875 182.558594 213.082031 181.980469 213.113281 C 181.402344 213.144531 180.78125 213.171875 180.121094 213.203125 C 179.460938 213.234375 178.761719 213.261719 178.023438 213.289062 C 177.289062 213.3125 176.515625 213.339844 175.710938 213.363281 C 174.90625 213.386719 174.070312 213.410156 173.203125 213.433594 C 172.335938 213.453125 171.445312 213.472656 170.523438 213.492188 C 169.605469 213.507812 168.664062 213.523438 167.703125 213.539062 C 166.738281 213.554688 165.757812 213.566406 164.761719 213.578125 C 163.765625 213.589844 162.753906 213.597656 161.734375 213.605469 C 160.710938 213.613281 159.683594 213.617188 158.644531 213.621094 C 157.609375 213.625 156.566406 213.628906 155.527344 213.628906 C 154.484375 213.628906 153.445312 213.625 152.40625 213.621094 C 151.371094 213.617188 150.339844 213.613281 149.320312 213.605469 C 148.296875 213.597656 147.289062 213.589844 146.289062 213.578125 C 145.292969 213.566406 144.3125 213.554688 143.351562 213.539062 C 142.386719 213.523438 141.445312 213.507812 140.527344 213.492188 C 139.609375 213.472656 138.714844 213.453125 137.847656 213.433594 C 136.984375 213.410156 136.148438 213.386719 135.339844 213.363281 C 134.535156 213.339844 133.765625 213.3125 133.027344 213.289062 C 132.292969 213.261719 131.59375 213.234375 130.929688 213.203125 C 130.269531 213.171875 129.648438 213.144531 129.070312 213.113281 C 128.492188 213.082031 127.957031 213.046875 127.464844 213.015625 C 126.976562 212.980469 126.53125 212.945312 126.132812 212.910156 C 125.730469 212.875 125.382812 212.839844 125.078125 212.804688 C 124.777344 212.769531 124.523438 212.730469 124.320312 212.695312 C 124.117188 212.65625 123.964844 212.617188 123.863281 212.582031 C 123.761719 212.542969 123.707031 212.503906 123.707031 212.46875 C 123.707031 212.429688 123.761719 212.390625 123.863281 212.355469 C 123.964844 212.316406 124.117188 212.277344 124.320312 212.242188 C 124.523438 212.203125 124.777344 212.167969 125.078125 212.128906 C 125.382812 212.09375 125.730469 212.058594 126.132812 212.023438 C 126.53125 211.988281 126.976562 211.953125 127.464844 211.921875 C 127.957031 211.886719 128.492188 211.855469 129.070312 211.824219 C 129.648438 211.792969 130.269531 211.761719 130.929688 211.730469 C 131.59375 211.703125 132.292969 211.675781 133.027344 211.648438 C 133.765625 211.621094 134.535156 211.59375 135.339844 211.570312 C 136.148438 211.546875 136.984375 211.523438 137.847656 211.503906 C 138.714844 211.480469 139.609375 211.460938 140.527344 211.445312 C 141.445312 211.425781 142.386719 211.410156 143.351562 211.394531 C 144.3125 211.382812 145.292969 211.367188 146.289062 211.355469 C 147.289062 211.347656 148.296875 211.335938 149.320312 211.328125 C 150.339844 211.320312 151.371094 211.316406 152.40625 211.3125 C 153.445312 211.308594 154.484375 211.308594 155.527344 211.308594 C 156.566406 211.308594 157.609375 211.308594 158.644531 211.3125 C 159.683594 211.316406 160.710938 211.320312 161.734375 211.328125 C 162.753906 211.335938 163.765625 211.347656 164.761719 211.355469 C 165.757812 211.367188 166.738281 211.382812 167.703125 211.394531 C 168.664062 211.410156 169.605469 211.425781 170.523438 211.445312 C 171.445312 211.460938 172.335938 211.480469 173.203125 211.503906 C 174.070312 211.523438 174.90625 211.546875 175.710938 211.570312 C 176.515625 211.59375 177.289062 211.621094 178.023438 211.648438 C 178.761719 211.675781 179.460938 211.703125 180.121094 211.730469 C 180.78125 211.761719 181.402344 211.792969 181.980469 211.824219 C 182.558594 211.855469 183.09375 211.886719 183.585938 211.921875 C 184.078125 211.953125 184.523438 211.988281 184.921875 212.023438 C 185.320312 212.058594 185.671875 212.09375 185.972656 212.128906 C 186.277344 212.167969 186.527344 212.203125 186.730469 212.242188 C 186.933594 212.277344 187.085938 212.316406 187.191406 212.355469 C 187.292969 212.390625 187.34375 212.429688 187.34375 212.46875 Z M 187.34375 212.46875 " fill-opacity="1" fill-rule="nonzero"/><path fill="#3f432f" d="M 104.386719 161.324219 C 102.109375 162.707031 100.664062 165.574219 101.8125 168.144531 C 95.222656 161.949219 84.699219 159.625 76.191406 163.039062 C 79.730469 163.046875 83.289062 163.671875 86.660156 164.726562 C 89.132812 165.503906 91.617188 166.292969 93.816406 167.714844 C 95.246094 168.636719 96.5 169.757812 97.6875 170.964844 C 98.613281 171.90625 99.449219 172.925781 100.011719 174.132812 C 104.136719 182.972656 94.976562 183.570312 91.273438 188.914062 C 87.800781 193.933594 90.898438 199.515625 94.800781 203.09375 C 107.6875 214.929688 128.234375 214.34375 144.753906 212.1875 C 150.175781 211.480469 162.488281 209.621094 162.5625 204.007812 C 162.597656 201.480469 158.195312 199.023438 154.636719 200.472656 C 156.453125 196.480469 151.511719 194.316406 148.492188 196.8125 C 148.6875 195.691406 147.777344 194.667969 146.605469 195.023438 C 146.984375 194.273438 147.039062 193.511719 146.722656 192.722656 C 145.042969 188.484375 136.226562 190.671875 137.433594 195.546875 C 136.335938 194.785156 135.101562 195.324219 134.628906 196.46875 C 132.726562 192.671875 126.597656 194.347656 126.570312 198.601562 C 126.5625 199.757812 127.078125 200.679688 127.992188 201.351562 C 125.113281 200.726562 122.757812 203.320312 123.714844 206.089844 C 123.90625 206.640625 124.121094 207.15625 124.558594 207.542969 C 116.378906 207.890625 97.679688 206.660156 97.671875 195.628906 C 97.667969 192.304688 101.320312 189.074219 104.117188 187.492188 C 117.804688 179.761719 172.359375 176.644531 187.453125 169.902344 C 189.929688 168.796875 192.757812 167.132812 194.441406 164.945312 C 197.964844 160.359375 192.4375 157.777344 188.6875 157.390625 C 189.648438 154.734375 186.460938 153.453125 184.65625 155.269531 C 184.9375 154.179688 184.007812 153.539062 183.039062 153.890625 C 182.0625 150.058594 175.585938 152.429688 177.1875 155.96875 C 176.613281 155.773438 175.847656 156 175.53125 156.539062 C 173.679688 153.683594 169.644531 156.566406 171.085938 159.890625 C 170.179688 159.433594 168.601562 160.003906 168.398438 161.097656 C 165.375 161.136719 162.105469 159.984375 159.320312 158.855469 C 155.574219 157.335938 150.125 153.582031 146.3125 156.742188 C 146.601562 155.292969 146.054688 153.800781 144.628906 153.171875 C 143.300781 152.589844 141.269531 152.839844 141.066406 154.578125 C 139.332031 152.960938 136.496094 154.800781 136.601562 156.96875 C 133.191406 153.730469 126.828125 151.917969 122.640625 154.722656 C 120.824219 155.9375 119.175781 157.339844 117.402344 158.578125 C 113.457031 161.339844 108.933594 161.460938 104.386719 161.324219 Z M 104.386719 161.324219 " fill-opacity="1" fill-rule="evenodd"/><path fill="#3f432f" d="M 117.828125 160.371094 C 117.675781 157.46875 119.753906 154.476562 122.609375 153.761719 C 119.710938 153.378906 117.097656 155.496094 116.152344 158.136719 C 115.886719 158.878906 115.636719 159.75 115.703125 160.554688 C 115.242188 160.066406 115.082031 159.230469 115.066406 158.585938 C 115.054688 158.027344 115 157.484375 115.105469 156.929688 C 115.449219 155.113281 116.777344 152.671875 118.351562 151.59375 C 117.421875 151.574219 116.554688 152.425781 115.890625 152.976562 C 113.683594 154.800781 112.296875 157.453125 112.015625 160.289062 C 111.210938 157.355469 112.671875 152.734375 114.644531 150.582031 C 112.097656 151.632812 109.960938 156.617188 110.140625 159.328125 C 109.792969 157.859375 107.992188 157.742188 106.976562 158.503906 C 106.46875 156.496094 102.21875 156.097656 101.808594 159.214844 C 101.28125 159.011719 100.636719 159.441406 100.660156 160.019531 C 98.917969 159.101562 97.035156 161.628906 99.46875 163.207031 C 105.398438 167.046875 118.140625 166.320312 117.828125 160.371094 Z M 117.828125 160.371094 " fill-opacity="1" fill-rule="evenodd"/><path fill="#3f432f" d="M 250.027344 162.535156 C 249.90625 166.929688 249.773438 171.328125 249.734375 175.730469 C 251.15625 175.722656 252.554688 175.382812 253.980469 175.390625 C 253.746094 170.613281 253.730469 165.824219 253.628906 161.042969 C 254.535156 163.554688 255.953125 165.960938 257.898438 167.53125 C 260.804688 169.882812 264.921875 170.257812 265.09375 165.4375 C 265.320312 159.195312 256.441406 153.128906 255.425781 145.1875 C 256.238281 147.835938 257.984375 150.753906 260.535156 152.011719 C 263.007812 153.230469 265.847656 151.214844 265.316406 148.496094 C 264.851562 146.113281 263.386719 144.421875 261.886719 142.609375 C 256.746094 136.425781 253.785156 133.558594 253.796875 125.042969 C 254.304688 127.476562 255.164062 130.074219 256.714844 132.042969 C 258.660156 134.507812 262.871094 135.761719 262.199219 131.207031 C 261.792969 128.453125 260.238281 126.316406 258.734375 124.066406 C 255.675781 119.496094 252.792969 115.371094 252.40625 109.757812 C 252.726562 111.6875 253.355469 113.691406 254.597656 115.234375 C 256.230469 117.261719 259.214844 117.691406 258.898438 114.324219 C 258.617188 111.355469 256.804688 108.566406 255.472656 105.980469 C 253.238281 101.636719 251.972656 97.203125 252.070312 92.289062 C 251.398438 96.917969 249.390625 101.503906 247.375 105.679688 C 246.097656 108.335938 244.535156 111.046875 243.941406 113.964844 C 243.558594 115.847656 244.410156 118.773438 246.890625 116.789062 C 248.566406 115.449219 249.664062 113.144531 250.265625 111.128906 C 249.332031 119.675781 240.121094 125.285156 239.132812 132.199219 C 238.660156 135.511719 241.558594 137.050781 244.257812 135.035156 C 247.136719 132.882812 249.226562 128.917969 250.214844 125.511719 C 249.847656 131.851562 245.039062 137.015625 240.855469 141.375 C 239.085938 143.214844 236.957031 145.382812 236.328125 147.945312 C 235.289062 152.179688 239.023438 154.417969 242.488281 151.796875 C 244.441406 150.324219 246.203125 147.800781 247.179688 145.539062 C 247.667969 157.75 234.46875 157.355469 234.199219 166.148438 C 234.066406 170.484375 239.199219 171.28125 242.277344 169.683594 C 245.402344 168.0625 248.097656 165.535156 250.027344 162.535156 Z M 250.027344 162.535156 " fill-opacity="1" fill-rule="evenodd"/><path fill="#3f432f" d="M 282.371094 167.097656 C 284.175781 159.789062 272.175781 156.117188 272.1875 147.222656 C 272.925781 149.304688 275.488281 152.617188 278.050781 151.484375 C 278.554688 151.261719 279 150.773438 279.113281 150.226562 C 279.46875 148.472656 276.917969 145.917969 275.828125 144.785156 C 273.335938 142.191406 271.097656 139.261719 271.359375 135.4375 C 271.675781 137.253906 272.777344 139.59375 274.328125 140.644531 C 275.234375 141.257812 277.445312 141.453125 277.300781 139.804688 C 277.078125 137.238281 274.984375 135.164062 273.625 133.175781 C 272.191406 131.082031 271.179688 129.007812 270.835938 126.484375 C 271.363281 128.199219 272.101562 130.226562 273.585938 131.339844 C 274.707031 132.183594 276.382812 131.613281 276.121094 130.070312 C 275.851562 128.46875 274.773438 126.957031 273.921875 125.617188 C 272.054688 122.671875 270.46875 119.824219 270.238281 116.257812 C 269.859375 119.15625 268.640625 121.84375 267.011719 124.253906 C 265.9375 125.847656 264.363281 127.332031 263.953125 129.285156 C 263.601562 130.984375 264.929688 131.890625 266.386719 130.792969 C 267.742188 129.773438 268.386719 128.113281 268.828125 126.539062 C 269.453125 132.25 260.953125 136.390625 262.457031 140.320312 C 262.652344 140.839844 263.074219 141.25 263.625 141.363281 C 265.996094 141.855469 268.007812 138.050781 268.703125 136.191406 C 268.039062 142.03125 259.746094 144.335938 260.4375 149.386719 C 260.542969 150.160156 260.882812 150.785156 261.628906 151.09375 C 264.019531 152.09375 265.988281 149.402344 266.925781 147.566406 C 267.085938 154.40625 255.078125 157.207031 257.871094 165.789062 C 258.878906 168.882812 261.832031 172.59375 265.503906 171.367188 C 267.363281 170.75 268.753906 168.78125 270.84375 168.875 C 274.335938 169.03125 281.378906 171.132812 282.371094 167.097656 Z M 282.371094 167.097656 " fill-opacity="1" fill-rule="evenodd"/><path fill="#b1b27b" d="M 121.691406 163.707031 C 139.003906 163.503906 144.074219 166.5625 137.503906 167.878906 C 132.222656 168.9375 125.417969 169.226562 121.894531 171.210938 C 123.75 170.734375 125.652344 170.542969 127.546875 170.265625 C 128.957031 170.058594 135.582031 169.558594 135.707031 170.746094 C 135.769531 171.320312 129.3125 172.175781 126.453125 172.535156 C 121.441406 173.167969 110.332031 175.1875 107.027344 179.175781 C 118.050781 173.292969 131.144531 174.070312 143.242188 173.316406 C 149.875 172.898438 156.382812 172.011719 163.015625 171.230469 C 170.429688 170.355469 187.460938 167.359375 187.152344 166.175781 C 187.023438 165.679688 180.3125 165.097656 164.832031 163.257812 C 150.398438 161.539062 139.886719 160.265625 121.691406 163.707031 Z M 121.691406 163.707031 " fill-opacity="1" fill-rule="evenodd"/><path fill="#3f432f" d="M 119.222656 114.570312 C 119.597656 115.535156 119.484375 116.78125 118.714844 117.523438 C 117.742188 118.457031 116.160156 117.707031 115.582031 116.691406 C 114.640625 118.558594 112.28125 119.609375 110.367188 118.414062 C 108.417969 117.199219 107.875 113.75 109.410156 111.992188 C 109 112.433594 108.503906 112.683594 107.953125 112.921875 C 104.921875 114.222656 103.238281 111.28125 103.597656 108.597656 C 101.53125 109.933594 98.867188 108.679688 97.535156 106.859375 C 95.160156 103.613281 96.273438 97.304688 100.851562 96.816406 C 101.707031 96.722656 102.582031 96.640625 103.40625 96.949219 C 104.441406 97.335938 105.179688 98.078125 105.820312 98.953125 C 106.617188 97.585938 108.476562 97.050781 109.878906 97.753906 C 108.722656 97.121094 107.960938 96.171875 107.859375 94.789062 C 107.707031 92.648438 109.484375 90.378906 111.726562 90.824219 C 111.085938 90.171875 110.578125 89.289062 110.445312 88.375 C 110.3125 87.46875 110.449219 86.582031 110.769531 85.734375 C 111.363281 84.171875 112.582031 82.824219 114.328125 82.640625 C 117.386719 82.316406 119.507812 85.476562 117.902344 88.128906 C 119.679688 86.144531 122.382812 84.730469 124.421875 87.320312 C 124.152344 84.304688 124.808594 80.523438 127.90625 79.289062 C 129.117188 78.804688 130.621094 78.71875 131.882812 79.035156 C 134.03125 79.574219 136.761719 81.746094 136.523438 84.210938 C 137.371094 83.953125 138.296875 84.492188 138.757812 85.203125 C 138.914062 84.167969 139.347656 83.238281 139.980469 82.40625 C 141.472656 80.433594 143.8125 79.117188 146.359375 79.65625 C 150.679688 80.574219 153.273438 86.0625 150.65625 89.761719 C 155.40625 85.480469 160.09375 93.746094 154.609375 96.28125 C 155.734375 96.0625 156.707031 97.167969 156.65625 98.246094 C 157.1875 97.410156 158.152344 96.988281 159.035156 96.625 C 160.753906 95.925781 162.914062 95.75 164.574219 96.765625 C 167.597656 98.621094 168.601562 103.828125 165.796875 106.230469 C 166.242188 106.324219 166.660156 106.570312 167.003906 106.867188 C 167.601562 107.390625 168.136719 108.003906 168.199219 108.84375 C 168.351562 110.996094 165.644531 112.496094 163.796875 111.703125 C 164.535156 115 159.78125 117.589844 158.265625 114.253906 C 156.84375 116.554688 153.957031 115.667969 152.554688 113.8125 C 152.214844 113.363281 151.945312 112.902344 151.71875 112.425781 C 148.570312 114.617188 143.242188 117.824219 140.503906 119.183594 C 137.058594 132.058594 135.832031 145.472656 139.917969 158.421875 C 137.285156 158.40625 135.953125 158.261719 133.367188 157.589844 C 132.816406 151.480469 133.464844 144.410156 134.445312 138.359375 C 131.964844 135.09375 129.710938 129.796875 129.101562 125.960938 C 130.402344 124.824219 131.328125 123.292969 132.144531 121.773438 C 130.5 119.234375 128.664062 116.855469 126.691406 114.539062 C 125.195312 114.28125 123.589844 114.246094 121.957031 114.332031 C 121.78125 114.472656 121.558594 114.585938 121.289062 114.660156 C 120.96875 114.75 120.628906 114.761719 120.300781 114.742188 C 119.996094 114.726562 119.726562 114.652344 119.460938 114.542969 C 119.378906 114.554688 119.300781 114.5625 119.222656 114.570312 Z M 139.949219 105.507812 C 139.363281 105.992188 138.753906 106.449219 138.144531 106.898438 C 137.453125 114.195312 135.6875 121.46875 131.875 126.105469 C 132.558594 128.671875 133.675781 131.1875 135.3125 133.292969 C 135.542969 132.023438 135.78125 130.765625 136.019531 129.617188 C 137.410156 122.890625 139.472656 116.660156 141.671875 110.164062 C 142.160156 108.722656 142.699219 107.332031 143.230469 105.9375 C 142.015625 107.097656 140.933594 107 139.949219 105.507812 Z M 128.132812 106.867188 C 127.472656 108.515625 125.738281 109.359375 123.9375 108.648438 C 123.082031 108.308594 122.285156 107.695312 121.558594 106.988281 C 121.769531 107.351562 121.941406 107.734375 122.066406 108.117188 C 122.152344 108.210938 122.234375 108.304688 122.320312 108.394531 C 124.484375 110.75 131.117188 117.226562 132.949219 120.210938 C 133.414062 119.257812 133.84375 118.273438 134.234375 117.257812 C 134.316406 116.683594 134.335938 116.101562 134.25 115.511719 C 133.761719 112.128906 130.589844 109.324219 128.304688 107.039062 C 128.25 106.984375 128.191406 106.925781 128.132812 106.867188 Z M 144.925781 110.863281 C 144.113281 111.441406 143.28125 112.003906 142.46875 112.574219 C 141.898438 114.316406 141.367188 116.074219 140.871094 117.839844 C 142.71875 116.941406 145.851562 115.058594 148.539062 113.289062 C 148.515625 112.953125 148.527344 112.617188 148.5625 112.277344 C 147.261719 112.996094 145.707031 112.714844 145.046875 111.160156 C 145.003906 111.0625 144.964844 110.964844 144.925781 110.863281 Z M 137.40625 98.773438 C 136.160156 104.003906 133.425781 108.4375 128.460938 104.316406 C 128.480469 104.738281 128.472656 105.148438 128.429688 105.558594 C 130.65625 108.113281 134.449219 110.832031 135.253906 114.289062 C 136.75 109.359375 137.453125 103.988281 137.40625 98.773438 Z M 122.179688 109.53125 C 122.070312 109.976562 121.792969 110.34375 121.261719 110.394531 C 122.132812 111.074219 122.800781 112.582031 122.445312 113.636719 C 123.667969 113.636719 124.886719 113.699219 126.097656 113.847656 C 124.839844 112.394531 123.527344 110.964844 122.179688 109.53125 Z M 151.304688 111.390625 C 151.148438 110.9375 151.019531 110.46875 150.894531 109.984375 C 150.414062 110.578125 149.894531 111.148438 149.347656 111.683594 C 149.304688 112.046875 149.289062 112.410156 149.320312 112.769531 C 150.042969 112.285156 150.714844 111.816406 151.304688 111.390625 Z M 144.40625 106.976562 C 143.867188 108.445312 143.34375 109.929688 142.847656 111.421875 C 143.472656 111.023438 144.09375 110.621094 144.707031 110.207031 C 144.390625 109.097656 144.355469 108.046875 144.40625 106.976562 Z M 138.472656 101.632812 C 138.425781 103.089844 138.34375 104.574219 138.21875 106.0625 C 138.652344 105.710938 139.117188 105.273438 139.558594 104.828125 C 139.4375 104.589844 139.316406 104.324219 139.195312 104.039062 C 138.871094 103.257812 138.636719 102.453125 138.472656 101.632812 Z M 138.472656 101.632812 " fill-opacity="1" fill-rule="evenodd"/><path fill="#3f432f" d="M 236.117188 226.5625 C 236.148438 221.417969 240.125 216.339844 245.25 215.367188 C 240.164062 214.394531 235.328125 217.867188 233.382812 222.4375 C 232.835938 223.722656 232.304688 225.242188 232.335938 226.667969 C 231.574219 225.757812 231.375 224.257812 231.417969 223.121094 C 231.453125 222.132812 231.410156 221.164062 231.652344 220.195312 C 232.449219 217.015625 235.046875 212.835938 237.945312 211.089844 C 236.300781 210.960938 234.679688 212.382812 233.445312 213.285156 C 229.359375 216.285156 226.636719 220.835938 225.84375 225.816406 C 224.726562 220.546875 227.78125 212.523438 231.492188 208.921875 C 226.878906 210.515625 222.589844 219.109375 222.625 223.925781 C 222.160156 221.289062 218.988281 220.898438 217.113281 222.140625 C 216.425781 218.539062 208.949219 217.394531 207.898438 222.863281 C 206.988281 222.453125 205.804688 223.144531 205.785156 224.167969 C 202.796875 222.363281 199.214844 226.644531 203.351562 229.679688 C 213.441406 237.089844 236.054688 237.121094 236.117188 226.5625 Z M 236.117188 226.5625 " fill-opacity="1" fill-rule="evenodd"/><path fill="#3f432f" d="M 245.296875 175.351562 C 244.035156 174.5 242.1875 174.167969 240.9375 174.746094 C 240.8125 174.820312 240.6875 174.894531 240.558594 174.960938 C 240.675781 174.878906 240.804688 174.804688 240.9375 174.746094 C 243.140625 173.402344 244.761719 171.003906 245.703125 168.664062 C 244.625 170.058594 243.035156 171.042969 241.503906 171.851562 C 239.710938 172.800781 237.984375 173.46875 236.90625 175.308594 C 237.261719 171.910156 239.84375 168.894531 242.605469 167.140625 C 239.71875 167.769531 237.203125 169.933594 235.753906 172.457031 C 235.148438 173.507812 234.71875 174.675781 234.285156 175.8125 C 234.738281 171.683594 230.945312 165.230469 226.945312 163.9375 C 228.945312 165.855469 230.988281 169.675781 231.40625 172.359375 C 231.574219 173.441406 231.714844 174.679688 231.257812 175.707031 C 230.832031 169.417969 225.378906 168.632812 222.175781 164.597656 C 223.382812 167.667969 226.695312 169.410156 228.015625 172.609375 C 228.570312 173.945312 228.871094 175.71875 228.136719 177.046875 C 227.3125 173.726562 224.511719 170.605469 221.257812 169.605469 C 223.964844 171.574219 225.4375 174.847656 225.554688 178.167969 C 217.5625 179.5625 211.003906 180.957031 209.160156 181.4375 C 206.484375 182.128906 200.179688 183.707031 197.355469 183.363281 C 197.644531 180.703125 195.453125 178.199219 192.71875 179.199219 C 190.816406 174.292969 181.898438 175.527344 181.277344 180.300781 C 180.289062 180.222656 179.417969 180.878906 179.300781 181.890625 C 178.707031 181.417969 176.480469 180.175781 174.839844 181.523438 C 172.796875 183.199219 173.234375 186.082031 175.480469 187.382812 C 174.441406 187.667969 173.398438 187.929688 172.363281 188.230469 C 171.765625 188.40625 167.953125 189.273438 168.566406 190.542969 C 169.070312 191.582031 194.515625 191.679688 199.695312 192.023438 C 203.121094 192.25 246.449219 194.859375 246.023438 205.898438 C 245.507812 219.335938 208.28125 227.546875 183.449219 232.21875 C 174.605469 233.886719 163.859375 234.722656 163.851562 235.945312 C 163.84375 236.996094 176.46875 238.691406 183.457031 239.117188 C 209.578125 240.707031 239.46875 234.597656 244.824219 233.449219 C 226.015625 242.722656 190.445312 243.234375 184.417969 243.4375 C 174.726562 243.765625 165.128906 243.175781 155.503906 242.113281 C 186.871094 252.21875 257.601562 244.515625 279.082031 217.867188 C 284.050781 211.707031 292.949219 197.734375 286.183594 190.421875 C 282.992188 186.972656 276.859375 188.183594 275.226562 183.742188 C 272.570312 176.496094 285.480469 167.105469 290.644531 164.683594 C 292.957031 163.601562 295.371094 162.851562 297.910156 162.539062 C 291.910156 160.832031 280.863281 164.265625 276.304688 168.5625 C 275.195312 169.605469 273.929688 170.464844 272.863281 171.535156 C 273.5 168.777344 275.167969 166.058594 277.371094 164.277344 C 272.933594 166.605469 269.140625 170.125 266.824219 174.589844 C 263.863281 171.226562 261.4375 167.074219 261.425781 162.453125 C 260.816406 166.441406 260.59375 171.011719 262.476562 174.730469 C 259.160156 174.160156 255.574219 174.679688 252.226562 174.828125 C 250.074219 174.921875 247.734375 175.105469 245.296875 175.351562 Z M 245.296875 175.351562 " fill-opacity="1" fill-rule="evenodd"/><path fill="#b1b27b" d="M 221.542969 225.492188 C 237.652344 226.386719 256.839844 226.160156 270.292969 216.167969 C 276.25 211.746094 283.402344 202.167969 276.390625 195.367188 C 271.828125 190.945312 263.773438 191.820312 257.945312 191.304688 C 256.253906 191.152344 254.324219 191.171875 252.738281 190.464844 C 255.488281 187.921875 261.339844 188.589844 264.777344 188.898438 C 261.203125 187.65625 257.292969 187.582031 253.617188 186.777344 C 252.285156 186.484375 250.242188 186.246094 249.339844 185.0625 C 248.148438 183.503906 251.460938 181.113281 252.5625 180.6875 C 256.65625 179.105469 262.683594 177.671875 267.027344 178.648438 C 261.863281 175.558594 255.074219 176.554688 249.390625 176.878906 C 237.792969 177.542969 226.125 177.933594 214.839844 180.914062 C 209.636719 182.289062 198.253906 186.226562 198.238281 187.101562 C 198.171875 190.261719 237.484375 191.183594 246.515625 197.5 C 250.128906 200.027344 251.78125 202.472656 251.652344 205.046875 C 251.460938 208.875 245.742188 219.082031 221.542969 225.492188 Z M 221.542969 225.492188 " fill-opacity="1" fill-rule="evenodd"/><g clip-path="url(#22f0022774)"><path fill="#f3b739" d="M 231.699219 90.101562 C 231.699219 90.785156 231.667969 91.464844 231.597656 92.148438 C 231.53125 92.828125 231.425781 93.503906 231.292969 94.171875 C 231.15625 94.84375 230.988281 95.503906 230.785156 96.160156 C 230.582031 96.8125 230.347656 97.457031 230.082031 98.089844 C 229.816406 98.71875 229.519531 99.335938 229.191406 99.9375 C 228.863281 100.542969 228.503906 101.128906 228.117188 101.695312 C 227.730469 102.265625 227.316406 102.8125 226.875 103.339844 C 226.433594 103.871094 225.964844 104.375 225.472656 104.859375 C 224.980469 105.34375 224.464844 105.800781 223.925781 106.234375 C 223.386719 106.667969 222.828125 107.074219 222.25 107.453125 C 221.671875 107.832031 221.074219 108.183594 220.460938 108.507812 C 219.847656 108.828125 219.21875 109.121094 218.574219 109.382812 C 217.933594 109.644531 217.277344 109.875 216.609375 110.074219 C 215.945312 110.269531 215.269531 110.4375 214.585938 110.570312 C 213.902344 110.703125 213.214844 110.804688 212.523438 110.871094 C 211.828125 110.9375 211.136719 110.972656 210.4375 110.972656 C 209.742188 110.972656 209.046875 110.9375 208.355469 110.871094 C 207.660156 110.804688 206.972656 110.703125 206.289062 110.570312 C 205.609375 110.4375 204.933594 110.269531 204.265625 110.074219 C 203.601562 109.875 202.945312 109.644531 202.300781 109.382812 C 201.660156 109.121094 201.03125 108.828125 200.417969 108.507812 C 199.800781 108.183594 199.207031 107.832031 198.625 107.453125 C 198.046875 107.074219 197.488281 106.667969 196.949219 106.234375 C 196.414062 105.800781 195.898438 105.34375 195.40625 104.859375 C 194.914062 104.375 194.445312 103.871094 194.003906 103.339844 C 193.5625 102.8125 193.148438 102.265625 192.761719 101.695312 C 192.375 101.128906 192.015625 100.542969 191.6875 99.9375 C 191.359375 99.335938 191.0625 98.71875 190.796875 98.089844 C 190.527344 97.457031 190.292969 96.8125 190.09375 96.160156 C 189.890625 95.503906 189.722656 94.84375 189.585938 94.171875 C 189.449219 93.503906 189.347656 92.828125 189.28125 92.148438 C 189.210938 91.464844 189.175781 90.785156 189.175781 90.101562 C 189.175781 89.417969 189.210938 88.734375 189.28125 88.054688 C 189.347656 87.375 189.449219 86.699219 189.585938 86.03125 C 189.722656 85.359375 189.890625 84.699219 190.09375 84.042969 C 190.292969 83.390625 190.527344 82.746094 190.796875 82.113281 C 191.0625 81.484375 191.359375 80.867188 191.6875 80.261719 C 192.015625 79.660156 192.375 79.074219 192.761719 78.507812 C 193.148438 77.9375 193.5625 77.390625 194.003906 76.863281 C 194.445312 76.332031 194.914062 75.828125 195.40625 75.34375 C 195.898438 74.859375 196.414062 74.402344 196.949219 73.96875 C 197.488281 73.535156 198.046875 73.128906 198.625 72.75 C 199.207031 72.367188 199.800781 72.019531 200.417969 71.695312 C 201.03125 71.375 201.660156 71.082031 202.300781 70.820312 C 202.945312 70.558594 203.601562 70.328125 204.265625 70.128906 C 204.933594 69.933594 205.609375 69.765625 206.289062 69.632812 C 206.972656 69.5 207.660156 69.398438 208.355469 69.332031 C 209.046875 69.265625 209.742188 69.230469 210.4375 69.230469 C 211.136719 69.230469 211.828125 69.265625 212.523438 69.332031 C 213.214844 69.398438 213.902344 69.5 214.585938 69.632812 C 215.269531 69.765625 215.945312 69.933594 216.609375 70.128906 C 217.277344 70.328125 217.933594 70.558594 218.574219 70.820312 C 219.21875 71.082031 219.847656 71.375 220.460938 71.695312 C 221.074219 72.019531 221.671875 72.367188 222.25 72.75 C 222.828125 73.128906 223.386719 73.535156 223.925781 73.96875 C 224.464844 74.402344 224.980469 74.859375 225.472656 75.34375 C 225.964844 75.828125 226.433594 76.332031 226.875 76.863281 C 227.316406 77.390625 227.730469 77.9375 228.117188 78.507812 C 228.503906 79.074219 228.863281 79.660156 229.191406 80.261719 C 229.519531 80.867188 229.816406 81.484375 230.082031 82.113281 C 230.347656 82.746094 230.582031 83.390625 230.785156 84.042969 C 230.988281 84.699219 231.15625 85.359375 231.292969 86.03125 C 231.425781 86.699219 231.53125 87.375 231.597656 88.054688 C 231.667969 88.734375 231.699219 89.417969 231.699219 90.101562 Z M 231.699219 90.101562 " fill-opacity="1" fill-rule="nonzero"/></g><g fill="#f3b739" fill-opacity="1"><g transform="translate(53.116198, 273.359468)"><g><path d="M 7.75 0.921875 C 7.539062 0.890625 7.335938 0.804688 7.140625 0.671875 C 6.242188 0.359375 5.546875 -0.179688 5.046875 -0.953125 C 4.554688 -1.722656 4.378906 -2.65625 4.515625 -3.75 L 7.90625 -35.515625 C 7.96875 -35.960938 8.222656 -36.1875 8.671875 -36.1875 C 10.003906 -36.113281 11.046875 -35.632812 11.796875 -34.75 C 12.554688 -33.863281 12.847656 -32.75 12.671875 -31.40625 L 10.015625 -6.421875 C 11.828125 -10.347656 13.613281 -14.585938 15.375 -19.140625 C 17.132812 -23.691406 18.679688 -28.242188 20.015625 -32.796875 C 20.285156 -33.722656 20.695312 -34.476562 21.25 -35.0625 C 21.800781 -35.644531 22.375 -36.050781 22.96875 -36.28125 C 23.570312 -36.519531 24.085938 -36.585938 24.515625 -36.484375 C 24.941406 -36.390625 25.171875 -36.117188 25.203125 -35.671875 L 26.6875 -10.109375 L 35.15625 -36.140625 C 35.257812 -36.515625 35.5 -36.664062 35.875 -36.59375 C 37.207031 -36.457031 38.164062 -35.816406 38.75 -34.671875 C 39.332031 -33.523438 39.398438 -32.300781 38.953125 -31 L 29 -0.46875 C 28.894531 -0.125 28.65625 0.046875 28.28125 0.046875 C 28.144531 0.015625 28.015625 0.00390625 27.890625 0.015625 C 27.773438 0.0351562 27.648438 0.03125 27.515625 0 C 24.398438 0.476562 22.773438 -0.820312 22.640625 -3.90625 C 22.503906 -6.363281 22.335938 -8.59375 22.140625 -10.59375 C 21.953125 -12.601562 21.773438 -14.515625 21.609375 -16.328125 C 21.441406 -18.140625 21.304688 -19.96875 21.203125 -21.8125 C 19.828125 -18.394531 18.382812 -14.9375 16.875 -11.4375 C 15.375 -7.945312 13.925781 -4.734375 12.53125 -1.796875 C 11.945312 -0.566406 11.273438 0.222656 10.515625 0.578125 C 9.765625 0.941406 8.84375 1.054688 7.75 0.921875 Z M 7.75 0.921875 "/></g></g></g><g fill="#f3b739" fill-opacity="1"><g transform="translate(88.224679, 273.359468)"><g><path d="M 27.15625 -11.453125 C 28.25 -10.765625 28.640625 -9.890625 28.328125 -8.828125 C 27.367188 -5.921875 26.160156 -3.582031 24.703125 -1.8125 C 23.253906 -0.0507812 21.265625 0.828125 18.734375 0.828125 C 17.222656 0.828125 15.988281 0.609375 15.03125 0.171875 C 14.082031 -0.253906 13.4375 -1.015625 13.09375 -2.109375 C 12.644531 -1.453125 12.1875 -0.9375 11.71875 -0.5625 C 11.257812 -0.1875 10.757812 0 10.21875 0 C 7.78125 0.988281 5.789062 1.019531 4.25 0.09375 C 2.71875 -0.820312 1.765625 -2.503906 1.390625 -4.953125 C 1.015625 -7.398438 1.335938 -10.367188 2.359375 -13.859375 C 3.148438 -16.421875 4.109375 -18.648438 5.234375 -20.546875 C 6.359375 -22.453125 7.691406 -23.898438 9.234375 -24.890625 C 10.773438 -25.878906 12.519531 -26.289062 14.46875 -26.125 C 15.226562 -26.394531 15.96875 -26.332031 16.6875 -25.9375 C 17.40625 -25.550781 17.984375 -24.878906 18.421875 -23.921875 L 19.046875 -25.875 C 19.148438 -26.207031 19.367188 -26.375 19.703125 -26.375 C 21.242188 -26.375 22.285156 -25.84375 22.828125 -24.78125 C 23.378906 -23.726562 23.25 -21.796875 22.4375 -18.984375 L 19.40625 -8.828125 C 18.820312 -6.878906 18.601562 -5.492188 18.75 -4.671875 C 18.90625 -3.847656 19.5 -3.4375 20.53125 -3.4375 C 21.082031 -3.4375 21.695312 -3.585938 22.375 -3.890625 C 23.0625 -4.203125 23.78125 -4.914062 24.53125 -6.03125 C 25.289062 -7.144531 26.023438 -8.898438 26.734375 -11.296875 C 26.804688 -11.535156 26.945312 -11.585938 27.15625 -11.453125 Z M 8.78125 -2.625 C 9.320312 -2.476562 9.882812 -2.65625 10.46875 -3.15625 C 11.050781 -3.65625 11.609375 -4.347656 12.140625 -5.234375 C 12.671875 -6.117188 13.109375 -7.113281 13.453125 -8.21875 C 13.585938 -8.726562 13.726562 -9.253906 13.875 -9.796875 C 14.03125 -10.347656 14.210938 -10.929688 14.421875 -11.546875 L 15.609375 -15.25 C 16.328125 -17.570312 16.664062 -19.414062 16.625 -20.78125 C 16.59375 -22.15625 15.976562 -22.84375 14.78125 -22.84375 C 13.613281 -22.84375 12.414062 -22.054688 11.1875 -20.484375 C 9.957031 -18.910156 8.847656 -16.5 7.859375 -13.25 C 7.378906 -11.601562 7.035156 -10.050781 6.828125 -8.59375 C 6.617188 -7.144531 6.660156 -5.894531 6.953125 -4.84375 C 7.242188 -3.800781 7.851562 -3.0625 8.78125 -2.625 Z M 8.78125 -2.625 "/></g></g></g><g fill="#f3b739" fill-opacity="1"><g transform="translate(112.964858, 273.359468)"><g><path d="M 17.765625 0.828125 C 15.878906 0.828125 14.445312 0.476562 13.46875 -0.21875 C 12.5 -0.925781 12.003906 -2.175781 11.984375 -3.96875 C 11.960938 -5.769531 12.453125 -8.296875 13.453125 -11.546875 L 16.46875 -21.5625 C 16.570312 -21.863281 16.453125 -22.144531 16.109375 -22.40625 C 15.773438 -22.664062 15.453125 -22.757812 15.140625 -22.6875 C 14.078125 -22.550781 13.09375 -22.097656 12.1875 -21.328125 C 11.28125 -20.554688 10.390625 -19.316406 9.515625 -17.609375 C 8.648438 -15.898438 7.769531 -13.609375 6.875 -10.734375 C 5.988281 -7.859375 5.03125 -4.226562 4 0.15625 C 3.863281 0.632812 3.554688 0.820312 3.078125 0.71875 C 1.710938 0.476562 0.703125 -0.160156 0.046875 -1.203125 C -0.597656 -2.242188 -0.75 -3.398438 -0.40625 -4.671875 L 5.84375 -25.921875 C 5.988281 -26.296875 6.25 -26.484375 6.625 -26.484375 C 7.613281 -26.453125 8.3125 -26.066406 8.71875 -25.328125 C 9.132812 -24.597656 9.410156 -23.753906 9.546875 -22.796875 C 10.535156 -24.535156 11.851562 -25.660156 13.5 -26.171875 C 15.144531 -26.691406 16.90625 -26.609375 18.78125 -25.921875 C 20.15625 -25.816406 21.054688 -25.222656 21.484375 -24.140625 C 21.910156 -23.066406 21.765625 -21.195312 21.046875 -18.53125 L 18.421875 -8.828125 C 17.878906 -6.878906 17.675781 -5.492188 17.8125 -4.671875 C 17.945312 -3.847656 18.53125 -3.4375 19.5625 -3.4375 C 20.101562 -3.4375 20.71875 -3.585938 21.40625 -3.890625 C 22.09375 -4.203125 22.8125 -4.914062 23.5625 -6.03125 C 24.3125 -7.144531 25.046875 -8.898438 25.765625 -11.296875 C 25.835938 -11.535156 25.972656 -11.585938 26.171875 -11.453125 C 27.265625 -10.765625 27.660156 -9.890625 27.359375 -8.828125 C 26.398438 -5.742188 25.191406 -3.363281 23.734375 -1.6875 C 22.285156 -0.0078125 20.296875 0.828125 17.765625 0.828125 Z M 17.765625 0.828125 "/></g></g></g><g fill="#f3b739" fill-opacity="1"><g transform="translate(136.729806, 273.359468)"><g><path d="M 27.15625 -11.453125 C 28.25 -10.765625 28.640625 -9.890625 28.328125 -8.828125 C 27.367188 -5.921875 26.160156 -3.582031 24.703125 -1.8125 C 23.253906 -0.0507812 21.265625 0.828125 18.734375 0.828125 C 17.160156 0.828125 15.898438 0.601562 14.953125 0.15625 C 14.015625 -0.289062 13.410156 -1.097656 13.140625 -2.265625 C 12.691406 -1.578125 12.210938 -1.019531 11.703125 -0.59375 C 11.191406 -0.164062 10.695312 0.03125 10.21875 0 C 7.78125 0.988281 5.789062 1.019531 4.25 0.09375 C 2.71875 -0.820312 1.765625 -2.503906 1.390625 -4.953125 C 1.015625 -7.398438 1.335938 -10.367188 2.359375 -13.859375 C 3.148438 -16.421875 4.109375 -18.648438 5.234375 -20.546875 C 6.359375 -22.453125 7.691406 -23.898438 9.234375 -24.890625 C 10.773438 -25.878906 12.519531 -26.289062 14.46875 -26.125 C 15.15625 -26.289062 15.835938 -26.210938 16.515625 -25.890625 C 17.203125 -25.566406 17.769531 -25.015625 18.21875 -24.234375 L 22.21875 -37.71875 C 22.320312 -38.0625 22.546875 -38.234375 22.890625 -38.234375 C 24.429688 -38.234375 25.46875 -37.703125 26 -36.640625 C 26.53125 -35.585938 26.398438 -33.65625 25.609375 -30.84375 L 19.40625 -8.828125 C 18.851562 -6.835938 18.644531 -5.441406 18.78125 -4.640625 C 18.914062 -3.835938 19.5 -3.4375 20.53125 -3.4375 C 21.082031 -3.4375 21.695312 -3.585938 22.375 -3.890625 C 23.0625 -4.203125 23.78125 -4.914062 24.53125 -6.03125 C 25.289062 -7.144531 26.023438 -8.898438 26.734375 -11.296875 C 26.804688 -11.535156 26.945312 -11.585938 27.15625 -11.453125 Z M 8.78125 -2.625 C 9.394531 -2.476562 10.023438 -2.722656 10.671875 -3.359375 C 11.328125 -3.992188 11.941406 -4.863281 12.515625 -5.96875 C 13.097656 -7.082031 13.546875 -8.273438 13.859375 -9.546875 C 13.929688 -9.859375 14.015625 -10.179688 14.109375 -10.515625 C 14.210938 -10.859375 14.316406 -11.203125 14.421875 -11.546875 L 16.328125 -17.96875 C 16.660156 -19.46875 16.722656 -20.65625 16.515625 -21.53125 C 16.316406 -22.40625 15.738281 -22.84375 14.78125 -22.84375 C 13.613281 -22.84375 12.414062 -22.054688 11.1875 -20.484375 C 9.957031 -18.910156 8.847656 -16.5 7.859375 -13.25 C 7.378906 -11.601562 7.035156 -10.050781 6.828125 -8.59375 C 6.617188 -7.144531 6.660156 -5.894531 6.953125 -4.84375 C 7.242188 -3.800781 7.851562 -3.0625 8.78125 -2.625 Z M 8.78125 -2.625 "/></g></g></g><g fill="#f3b739" fill-opacity="1"><g transform="translate(161.469986, 273.359468)"><g><path d="M 24.125 -11.453125 C 25.21875 -10.765625 25.613281 -9.890625 25.3125 -8.828125 C 24.445312 -5.921875 22.953125 -3.582031 20.828125 -1.8125 C 18.710938 -0.0507812 15.773438 0.828125 12.015625 0.828125 C 11.296875 0.828125 10.382812 0.726562 9.28125 0.53125 C 8.1875 0.34375 7.09375 -0.0351562 6 -0.609375 C 4.90625 -1.191406 3.957031 -2.054688 3.15625 -3.203125 C 2.351562 -4.347656 1.859375 -5.878906 1.671875 -7.796875 C 1.484375 -9.710938 1.78125 -12.109375 2.5625 -14.984375 C 3.414062 -18.171875 4.546875 -20.632812 5.953125 -22.375 C 7.359375 -24.125 8.90625 -25.28125 10.59375 -25.84375 C 12.289062 -26.40625 14.03125 -26.445312 15.8125 -25.96875 C 17.519531 -26.039062 18.851562 -25.5625 19.8125 -24.53125 C 20.769531 -23.507812 21.289062 -22.164062 21.375 -20.5 C 21.457031 -18.84375 21.039062 -17.070312 20.125 -15.1875 C 18.644531 -12.21875 16.867188 -10.175781 14.796875 -9.0625 C 12.734375 -7.945312 10.691406 -7.5625 8.671875 -7.90625 C 8.429688 -7.96875 8.207031 -8.015625 8 -8.046875 C 7.800781 -8.085938 7.613281 -8.125 7.4375 -8.15625 C 7.644531 -6.375 8.335938 -5.140625 9.515625 -4.453125 C 10.703125 -3.773438 12.132812 -3.4375 13.8125 -3.4375 C 15.039062 -3.4375 16.285156 -3.585938 17.546875 -3.890625 C 18.816406 -4.203125 19.988281 -4.90625 21.0625 -6 C 22.144531 -7.09375 23.03125 -8.835938 23.71875 -11.234375 C 23.78125 -11.515625 23.914062 -11.585938 24.125 -11.453125 Z M 13.546875 -23.359375 C 12.390625 -23.222656 11.425781 -22.398438 10.65625 -20.890625 C 9.882812 -19.378906 9.085938 -17.222656 8.265625 -14.421875 C 8.023438 -13.492188 7.816406 -12.625 7.640625 -11.8125 C 9.285156 -11.707031 10.570312 -11.820312 11.5 -12.15625 C 12.425781 -12.5 13.1875 -13.070312 13.78125 -13.875 C 14.382812 -14.6875 14.957031 -15.691406 15.5 -16.890625 C 16.289062 -18.804688 16.566406 -20.273438 16.328125 -21.296875 C 16.085938 -22.328125 15.160156 -23.015625 13.546875 -23.359375 Z M 13.546875 -23.359375 "/></g></g></g><g fill="#f3b739" fill-opacity="1"><g transform="translate(183.181807, 273.359468)"><g><path d="M 1.328125 2.875 C 0.273438 2.738281 -0.515625 2.125 -1.046875 1.03125 C -1.578125 -0.0625 -1.519531 -1.550781 -0.875 -3.4375 L 5.1875 -20.421875 C 4.53125 -21.316406 4.203125 -22.269531 4.203125 -23.28125 C 4.203125 -24.289062 4.34375 -25.222656 4.625 -26.078125 C 4.96875 -27.097656 5.4375 -27.953125 6.03125 -28.640625 C 6.625 -29.328125 7.488281 -29.671875 8.625 -29.671875 C 9.269531 -29.671875 9.703125 -29.40625 9.921875 -28.875 C 10.148438 -28.34375 10.226562 -27.695312 10.15625 -26.9375 C 10.09375 -26.1875 9.941406 -25.476562 9.703125 -24.8125 C 9.460938 -24.144531 9.207031 -23.675781 8.9375 -23.40625 C 9.132812 -23.4375 9.625 -23.65625 10.40625 -24.0625 C 11.195312 -24.476562 12.085938 -24.890625 13.078125 -25.296875 C 14.078125 -25.710938 15.003906 -25.921875 15.859375 -25.921875 C 17.160156 -25.785156 18.003906 -25.175781 18.390625 -24.09375 C 18.785156 -23.019531 18.644531 -21.164062 17.96875 -18.53125 L 15.34375 -8.828125 C 14.800781 -6.878906 14.597656 -5.492188 14.734375 -4.671875 C 14.867188 -3.847656 15.445312 -3.4375 16.46875 -3.4375 C 17.019531 -3.4375 17.632812 -3.585938 18.3125 -3.890625 C 19 -4.203125 19.71875 -4.914062 20.46875 -6.03125 C 21.226562 -7.144531 21.96875 -8.898438 22.6875 -11.296875 C 22.757812 -11.535156 22.894531 -11.585938 23.09375 -11.453125 C 24.1875 -10.765625 24.582031 -9.890625 24.28125 -8.828125 C 23.382812 -5.710938 22.191406 -3.320312 20.703125 -1.65625 C 19.222656 0 17.21875 0.828125 14.6875 0.828125 C 12.289062 0.828125 10.6875 -0.300781 9.875 -2.5625 C 9.070312 -4.820312 9.238281 -7.816406 10.375 -11.546875 L 12.9375 -20.0625 C 13.039062 -20.445312 12.976562 -20.757812 12.75 -21 C 12.53125 -21.238281 12.234375 -21.320312 11.859375 -21.25 L 8.9375 -20.734375 L 1.84375 2.3125 C 1.707031 2.6875 1.535156 2.875 1.328125 2.875 Z M 1.328125 2.875 "/></g></g></g><g fill="#f3b739" fill-opacity="1"><g transform="translate(203.867059, 273.359468)"><g><path d="M 6.3125 0.828125 C 4.425781 0.828125 2.976562 0.484375 1.96875 -0.203125 C 0.96875 -0.890625 0.46875 -2.117188 0.46875 -3.890625 C 0.46875 -5.671875 0.976562 -8.222656 2 -11.546875 L 9.859375 -37.671875 C 9.960938 -38.015625 10.179688 -38.1875 10.515625 -38.1875 C 12.097656 -38.1875 13.203125 -37.664062 13.828125 -36.625 C 14.460938 -35.582031 14.390625 -33.640625 13.609375 -30.796875 L 6.984375 -8.828125 C 6.367188 -6.878906 6.144531 -5.492188 6.3125 -4.671875 C 6.476562 -3.847656 7.078125 -3.4375 8.109375 -3.4375 C 8.660156 -3.4375 9.273438 -3.585938 9.953125 -3.890625 C 10.640625 -4.203125 11.359375 -4.90625 12.109375 -6 C 12.867188 -7.09375 13.609375 -8.835938 14.328125 -11.234375 C 14.390625 -11.515625 14.523438 -11.585938 14.734375 -11.453125 C 15.828125 -10.691406 16.21875 -9.816406 15.90625 -8.828125 C 14.945312 -5.921875 13.738281 -3.582031 12.28125 -1.8125 C 10.832031 -0.0507812 8.84375 0.828125 6.3125 0.828125 Z M 6.3125 0.828125 "/></g></g></g><g fill="#f3b739" fill-opacity="1"><g transform="translate(216.185822, 273.359468)"><g><path d="M 27.046875 -11.453125 C 28.140625 -10.765625 28.535156 -9.890625 28.234375 -8.828125 C 27.273438 -5.921875 26.066406 -3.582031 24.609375 -1.8125 C 23.160156 -0.0507812 21.164062 0.828125 18.625 0.828125 C 17.125 0.828125 15.894531 0.609375 14.9375 0.171875 C 13.976562 -0.253906 13.328125 -1.015625 12.984375 -2.109375 C 12.535156 -1.453125 12.082031 -0.9375 11.625 -0.5625 C 11.164062 -0.1875 10.660156 0 10.109375 0 C 7.742188 0.988281 5.816406 1.035156 4.328125 0.140625 C 2.847656 -0.742188 1.914062 -2.347656 1.53125 -4.671875 C 1.15625 -6.992188 1.46875 -9.800781 2.46875 -13.09375 L 6.625 -25.875 C 6.726562 -26.207031 6.945312 -26.375 7.28125 -26.375 C 8.820312 -26.375 9.863281 -25.84375 10.40625 -24.78125 C 10.957031 -23.726562 10.828125 -21.796875 10.015625 -18.984375 L 8 -12.421875 C 7.5625 -10.878906 7.226562 -9.441406 7 -8.109375 C 6.78125 -6.773438 6.78125 -5.632812 7 -4.6875 C 7.226562 -3.75 7.785156 -3.0625 8.671875 -2.625 C 9.222656 -2.476562 9.785156 -2.65625 10.359375 -3.15625 C 10.941406 -3.65625 11.5 -4.347656 12.03125 -5.234375 C 12.5625 -6.117188 13 -7.113281 13.34375 -8.21875 C 13.476562 -8.726562 13.625 -9.253906 13.78125 -9.796875 C 13.9375 -10.347656 14.117188 -10.929688 14.328125 -11.546875 L 18.9375 -25.875 C 19.039062 -26.207031 19.265625 -26.375 19.609375 -26.375 C 21.148438 -26.375 22.191406 -25.84375 22.734375 -24.78125 C 23.285156 -23.726562 23.148438 -21.796875 22.328125 -18.984375 L 19.296875 -8.828125 C 18.710938 -6.878906 18.5 -5.492188 18.65625 -4.671875 C 18.8125 -3.847656 19.398438 -3.4375 20.421875 -3.4375 C 20.972656 -3.4375 21.585938 -3.585938 22.265625 -3.890625 C 22.953125 -4.203125 23.671875 -4.914062 24.421875 -6.03125 C 25.179688 -7.144531 25.921875 -8.898438 26.640625 -11.296875 C 26.703125 -11.535156 26.835938 -11.585938 27.046875 -11.453125 Z M 27.046875 -11.453125 "/></g></g></g><g fill="#f3b739" fill-opacity="1"><g transform="translate(240.823348, 273.359468)"><g><path d="M 23 -11.453125 C 24.09375 -10.765625 24.484375 -9.890625 24.171875 -8.828125 C 23.316406 -6.160156 22.132812 -4.132812 20.625 -2.75 C 19.125 -1.363281 17.40625 -0.429688 15.46875 0.046875 C 13.539062 0.523438 11.460938 0.765625 9.234375 0.765625 C 5.398438 0.765625 2.445312 -0.140625 0.375 -1.953125 C -1.6875 -3.765625 -2.71875 -6.054688 -2.71875 -8.828125 C -2.71875 -10.191406 -2.398438 -11.207031 -1.765625 -11.875 C -1.140625 -12.550781 -0.378906 -12.957031 0.515625 -13.09375 C 0.722656 -13.125 0.898438 -13.0625 1.046875 -12.90625 C 1.203125 -12.75 1.296875 -12.550781 1.328125 -12.3125 C 1.367188 -12.039062 1.390625 -11.757812 1.390625 -11.46875 C 1.390625 -11.175781 1.40625 -10.894531 1.4375 -10.625 C 3.1875 -13.707031 4.613281 -16.226562 5.71875 -18.1875 C 6.832031 -20.15625 7.707031 -21.75 8.34375 -22.96875 C 8.976562 -24.1875 9.429688 -25.1875 9.703125 -25.96875 C 10.046875 -26.925781 10.523438 -27.695312 11.140625 -28.28125 C 11.753906 -28.863281 12.523438 -29.15625 13.453125 -29.15625 C 14.335938 -29.15625 15.007812 -28.988281 15.46875 -28.65625 C 15.9375 -28.332031 16.082031 -27.726562 15.90625 -26.84375 C 15.800781 -26.332031 15.628906 -25.800781 15.390625 -25.25 C 15.160156 -24.707031 14.820312 -24.144531 14.375 -23.5625 C 15.15625 -22.226562 15.722656 -20.769531 16.078125 -19.1875 C 16.441406 -17.613281 16.675781 -16.09375 16.78125 -14.625 C 16.882812 -13.15625 16.898438 -11.890625 16.828125 -10.828125 C 16.691406 -8.742188 16.394531 -7.082031 15.9375 -5.84375 C 15.476562 -4.613281 14.957031 -3.609375 14.375 -2.828125 C 15.363281 -3.066406 16.390625 -3.507812 17.453125 -4.15625 C 18.515625 -4.8125 19.5 -5.726562 20.40625 -6.90625 C 21.3125 -8.082031 22.035156 -9.546875 22.578125 -11.296875 C 22.648438 -11.535156 22.789062 -11.585938 23 -11.453125 Z M 6.515625 -2.265625 C 7.265625 -2.265625 7.988281 -2.65625 8.6875 -3.4375 C 9.394531 -4.226562 10.019531 -5.296875 10.5625 -6.640625 C 11.113281 -7.992188 11.519531 -9.507812 11.78125 -11.1875 C 12.039062 -12.863281 12.109375 -14.597656 11.984375 -16.390625 C 11.867188 -18.191406 11.484375 -19.914062 10.828125 -21.5625 L 2.265625 -5.703125 C 2.597656 -4.640625 3.097656 -3.800781 3.765625 -3.1875 C 4.441406 -2.570312 5.359375 -2.265625 6.515625 -2.265625 Z M 6.515625 -2.265625 "/></g></g></g><g fill="#f3b739" fill-opacity="1"><g transform="translate(261.405935, 273.359468)"><g><path d="M 15.75 -11.453125 C 16.851562 -10.691406 17.25 -9.816406 16.9375 -8.828125 C 15.976562 -5.921875 14.769531 -3.582031 13.3125 -1.8125 C 11.863281 -0.0507812 9.875 0.828125 7.34375 0.828125 C 4.570312 0.828125 2.695312 -0.300781 1.71875 -2.5625 C 0.738281 -4.820312 0.832031 -7.816406 2 -11.546875 C 2.71875 -13.773438 3.34375 -15.691406 3.875 -17.296875 C 4.40625 -18.898438 4.910156 -20.421875 5.390625 -21.859375 L 4.984375 -21.859375 C 4.054688 -21.828125 3.332031 -22.203125 2.8125 -22.984375 C 2.300781 -23.773438 1.960938 -24.53125 1.796875 -25.25 C 1.765625 -25.488281 1.84375 -25.660156 2.03125 -25.765625 C 2.21875 -25.867188 2.429688 -25.921875 2.671875 -25.921875 C 3.117188 -25.921875 3.570312 -25.910156 4.03125 -25.890625 C 4.488281 -25.878906 5.046875 -25.875 5.703125 -25.875 L 6.671875 -25.875 C 7.015625 -26.96875 7.375 -28.144531 7.75 -29.40625 C 8.125 -30.675781 8.535156 -32.097656 8.984375 -33.671875 C 9.085938 -34.015625 9.3125 -34.1875 9.65625 -34.1875 C 11.226562 -34.1875 12.328125 -33.660156 12.953125 -32.609375 C 13.585938 -31.566406 13.515625 -29.628906 12.734375 -26.796875 C 12.691406 -26.660156 12.65625 -26.539062 12.625 -26.4375 C 12.59375 -26.332031 12.5625 -26.210938 12.53125 -26.078125 L 13.03125 -26.078125 C 14.164062 -26.078125 15.046875 -25.769531 15.671875 -25.15625 C 16.304688 -24.539062 16.742188 -23.851562 16.984375 -23.09375 C 17.054688 -22.851562 17.023438 -22.664062 16.890625 -22.53125 C 16.753906 -22.394531 16.546875 -22.328125 16.265625 -22.328125 L 13.03125 -22.21875 C 12.789062 -22.21875 12.523438 -22.207031 12.234375 -22.1875 C 11.953125 -22.175781 11.671875 -22.171875 11.390625 -22.171875 C 11.046875 -21.003906 10.710938 -19.953125 10.390625 -19.015625 C 10.066406 -18.078125 9.742188 -17.132812 9.421875 -16.1875 C 9.097656 -15.25 8.738281 -14.1875 8.34375 -13 C 7.945312 -11.820312 7.492188 -10.429688 6.984375 -8.828125 C 6.367188 -6.878906 6.316406 -5.492188 6.828125 -4.671875 C 7.335938 -3.847656 8.109375 -3.4375 9.140625 -3.4375 C 9.679688 -3.4375 10.296875 -3.585938 10.984375 -3.890625 C 11.671875 -4.203125 12.390625 -4.90625 13.140625 -6 C 13.890625 -7.09375 14.625 -8.835938 15.34375 -11.234375 C 15.414062 -11.515625 15.550781 -11.585938 15.75 -11.453125 Z M 15.75 -11.453125 "/></g></g></g><g fill="#f3b739" fill-opacity="1"><g transform="translate(274.751256, 273.359468)"><g/></g></g><g fill="#f3b739" fill-opacity="1"><g transform="translate(287.583286, 273.359468)"><g><path d="M -0.609375 0.515625 L -0.765625 0.46875 C -1.140625 0.5 -1.4375 0.375 -1.65625 0.09375 C -1.882812 -0.175781 -1.929688 -0.484375 -1.796875 -0.828125 C -1.078125 -2.265625 -0.359375 -3.722656 0.359375 -5.203125 C 1.078125 -6.691406 1.796875 -8.191406 2.515625 -9.703125 C 1.628906 -10.523438 1.1875 -11.566406 1.1875 -12.828125 C 1.1875 -13.203125 1.441406 -13.390625 1.953125 -13.390625 L 4.265625 -13.390625 C 5.867188 -16.710938 7.472656 -20.050781 9.078125 -23.40625 C 10.691406 -26.757812 12.351562 -30.046875 14.0625 -33.265625 C 14.570312 -34.222656 15.253906 -34.914062 16.109375 -35.34375 C 16.972656 -35.769531 17.898438 -35.945312 18.890625 -35.875 L 18.984375 -36.59375 C 19.054688 -37.070312 19.316406 -37.28125 19.765625 -37.21875 C 21.066406 -37.070312 22.078125 -36.554688 22.796875 -35.671875 C 23.515625 -34.785156 23.769531 -33.65625 23.5625 -32.28125 L 18.53125 -0.609375 C 18.5 -0.441406 18.40625 -0.289062 18.25 -0.15625 C 18.09375 -0.0195312 17.910156 0.03125 17.703125 0 C 16.398438 -0.164062 15.398438 -0.71875 14.703125 -1.65625 C 14.003906 -2.601562 13.757812 -3.742188 13.96875 -5.078125 L 14.53125 -8.625 L 7.390625 -8.625 L 4.71875 -3.125 C 4.175781 -2.03125 3.484375 -1.175781 2.640625 -0.5625 C 1.804688 0.0507812 0.722656 0.410156 -0.609375 0.515625 Z M 9.65625 -13.390625 L 15.296875 -13.390625 L 17.96875 -30.28125 C 16.5625 -27.644531 15.179688 -24.929688 13.828125 -22.140625 C 12.484375 -19.359375 11.09375 -16.441406 9.65625 -13.390625 Z M 9.65625 -13.390625 "/></g></g></g><g fill="#f3b739" fill-opacity="1"><g transform="translate(309.962389, 273.359468)"><g><path d="M 4.828125 0 C 3.390625 -0.207031 2.335938 -0.847656 1.671875 -1.921875 C 1.003906 -3.003906 0.84375 -4.175781 1.1875 -5.4375 L 9.65625 -36.1875 C 9.789062 -36.59375 10.046875 -36.765625 10.421875 -36.703125 C 11.753906 -36.523438 12.785156 -35.90625 13.515625 -34.84375 C 14.253906 -33.789062 14.4375 -32.597656 14.0625 -31.265625 L 5.59375 -0.5625 C 5.488281 -0.113281 5.234375 0.0703125 4.828125 0 Z M 4.828125 0 "/></g></g></g><g fill="#3f432f" fill-opacity="1"><g transform="translate(84.547382, 303.34739)"><g><path d="M 3.734375 -2.203125 L 3.734375 0 L 2.28125 0 L 2.28125 -2.234375 L -0.125 -6.234375 L 1.40625 -6.234375 L 3.078125 -3.46875 L 4.734375 -6.234375 L 6.15625 -6.234375 Z M 3.734375 -2.203125 "/></g></g></g><g fill="#3f432f" fill-opacity="1"><g transform="translate(92.003279, 303.34739)"><g><path d="M 3.765625 0.109375 C 3.109375 0.109375 2.519531 -0.03125 2 -0.3125 C 1.488281 -0.59375 1.082031 -0.976562 0.78125 -1.46875 C 0.488281 -1.957031 0.34375 -2.507812 0.34375 -3.125 C 0.34375 -3.726562 0.488281 -4.273438 0.78125 -4.765625 C 1.082031 -5.253906 1.488281 -5.640625 2 -5.921875 C 2.519531 -6.203125 3.109375 -6.34375 3.765625 -6.34375 C 4.410156 -6.34375 4.988281 -6.203125 5.5 -5.921875 C 6.019531 -5.640625 6.425781 -5.253906 6.71875 -4.765625 C 7.019531 -4.273438 7.171875 -3.726562 7.171875 -3.125 C 7.171875 -2.507812 7.019531 -1.957031 6.71875 -1.46875 C 6.425781 -0.976562 6.019531 -0.59375 5.5 -0.3125 C 4.988281 -0.03125 4.410156 0.109375 3.765625 0.109375 Z M 3.765625 -1.125 C 4.128906 -1.125 4.457031 -1.207031 4.75 -1.375 C 5.050781 -1.539062 5.285156 -1.773438 5.453125 -2.078125 C 5.617188 -2.378906 5.703125 -2.726562 5.703125 -3.125 C 5.703125 -3.507812 5.617188 -3.851562 5.453125 -4.15625 C 5.285156 -4.457031 5.050781 -4.691406 4.75 -4.859375 C 4.457031 -5.023438 4.128906 -5.109375 3.765625 -5.109375 C 3.390625 -5.109375 3.050781 -5.023438 2.75 -4.859375 C 2.457031 -4.691406 2.226562 -4.457031 2.0625 -4.15625 C 1.894531 -3.851562 1.8125 -3.507812 1.8125 -3.125 C 1.8125 -2.726562 1.894531 -2.378906 2.0625 -2.078125 C 2.226562 -1.773438 2.457031 -1.539062 2.75 -1.375 C 3.050781 -1.207031 3.390625 -1.125 3.765625 -1.125 Z M 3.765625 -1.125 "/></g></g></g><g fill="#3f432f" fill-opacity="1"><g transform="translate(100.953469, 303.34739)"><g><path d="M 3.515625 0.109375 C 2.617188 0.109375 1.921875 -0.132812 1.421875 -0.625 C 0.929688 -1.125 0.6875 -1.832031 0.6875 -2.75 L 0.6875 -6.234375 L 2.125 -6.234375 L 2.125 -2.796875 C 2.125 -1.679688 2.585938 -1.125 3.515625 -1.125 C 3.960938 -1.125 4.304688 -1.257812 4.546875 -1.53125 C 4.785156 -1.800781 4.90625 -2.222656 4.90625 -2.796875 L 4.90625 -6.234375 L 6.328125 -6.234375 L 6.328125 -2.75 C 6.328125 -1.832031 6.078125 -1.125 5.578125 -0.625 C 5.085938 -0.132812 4.398438 0.109375 3.515625 0.109375 Z M 3.515625 0.109375 "/></g></g></g><g fill="#3f432f" fill-opacity="1"><g transform="translate(109.405565, 303.34739)"><g><path d="M 4.71875 0 L 3.515625 -1.734375 L 2.1875 -1.734375 L 2.1875 0 L 0.734375 0 L 0.734375 -6.234375 L 3.4375 -6.234375 C 3.988281 -6.234375 4.46875 -6.140625 4.875 -5.953125 C 5.28125 -5.773438 5.59375 -5.515625 5.8125 -5.171875 C 6.03125 -4.835938 6.140625 -4.4375 6.140625 -3.96875 C 6.140625 -3.507812 6.03125 -3.109375 5.8125 -2.765625 C 5.59375 -2.429688 5.273438 -2.175781 4.859375 -2 L 6.265625 0 Z M 4.6875 -3.96875 C 4.6875 -4.320312 4.570312 -4.59375 4.34375 -4.78125 C 4.125 -4.96875 3.796875 -5.0625 3.359375 -5.0625 L 2.1875 -5.0625 L 2.1875 -2.890625 L 3.359375 -2.890625 C 3.796875 -2.890625 4.125 -2.984375 4.34375 -3.171875 C 4.570312 -3.359375 4.6875 -3.625 4.6875 -3.96875 Z M 4.6875 -3.96875 "/></g></g></g><g fill="#3f432f" fill-opacity="1"><g transform="translate(117.386243, 303.34739)"><g/></g></g><g fill="#3f432f" fill-opacity="1"><g transform="translate(121.346571, 303.34739)"><g><path d="M 3.4375 -6.234375 C 3.988281 -6.234375 4.46875 -6.140625 4.875 -5.953125 C 5.28125 -5.773438 5.59375 -5.515625 5.8125 -5.171875 C 6.03125 -4.835938 6.140625 -4.4375 6.140625 -3.96875 C 6.140625 -3.507812 6.03125 -3.109375 5.8125 -2.765625 C 5.59375 -2.429688 5.28125 -2.171875 4.875 -1.984375 C 4.46875 -1.804688 3.988281 -1.71875 3.4375 -1.71875 L 2.1875 -1.71875 L 2.1875 0 L 0.734375 0 L 0.734375 -6.234375 Z M 3.359375 -2.890625 C 3.796875 -2.890625 4.125 -2.984375 4.34375 -3.171875 C 4.570312 -3.359375 4.6875 -3.625 4.6875 -3.96875 C 4.6875 -4.320312 4.570312 -4.59375 4.34375 -4.78125 C 4.125 -4.96875 3.796875 -5.0625 3.359375 -5.0625 L 2.1875 -5.0625 L 2.1875 -2.890625 Z M 3.359375 -2.890625 "/></g></g></g><g fill="#3f432f" fill-opacity="1"><g transform="translate(129.300573, 303.34739)"><g><path d="M 5.5625 -1.15625 L 5.5625 0 L 0.734375 0 L 0.734375 -6.234375 L 5.453125 -6.234375 L 5.453125 -5.078125 L 2.171875 -5.078125 L 2.171875 -3.71875 L 5.0625 -3.71875 L 5.0625 -2.59375 L 2.171875 -2.59375 L 2.171875 -1.15625 Z M 5.5625 -1.15625 "/></g></g></g><g fill="#3f432f" fill-opacity="1"><g transform="translate(136.712, 303.34739)"><g><path d="M 4.71875 0 L 3.515625 -1.734375 L 2.1875 -1.734375 L 2.1875 0 L 0.734375 0 L 0.734375 -6.234375 L 3.4375 -6.234375 C 3.988281 -6.234375 4.46875 -6.140625 4.875 -5.953125 C 5.28125 -5.773438 5.59375 -5.515625 5.8125 -5.171875 C 6.03125 -4.835938 6.140625 -4.4375 6.140625 -3.96875 C 6.140625 -3.507812 6.03125 -3.109375 5.8125 -2.765625 C 5.59375 -2.429688 5.273438 -2.175781 4.859375 -2 L 6.265625 0 Z M 4.6875 -3.96875 C 4.6875 -4.320312 4.570312 -4.59375 4.34375 -4.78125 C 4.125 -4.96875 3.796875 -5.0625 3.359375 -5.0625 L 2.1875 -5.0625 L 2.1875 -2.890625 L 3.359375 -2.890625 C 3.796875 -2.890625 4.125 -2.984375 4.34375 -3.171875 C 4.570312 -3.359375 4.6875 -3.625 4.6875 -3.96875 Z M 4.6875 -3.96875 "/></g></g></g><g fill="#3f432f" fill-opacity="1"><g transform="translate(144.692675, 303.34739)"><g><path d="M 2.78125 0.109375 C 2.289062 0.109375 1.816406 0.0390625 1.359375 -0.09375 C 0.898438 -0.226562 0.53125 -0.398438 0.25 -0.609375 L 0.734375 -1.703125 C 1.003906 -1.503906 1.320312 -1.34375 1.6875 -1.21875 C 2.0625 -1.101562 2.429688 -1.046875 2.796875 -1.046875 C 3.203125 -1.046875 3.503906 -1.109375 3.703125 -1.234375 C 3.898438 -1.359375 4 -1.519531 4 -1.71875 C 4 -1.863281 3.941406 -1.984375 3.828125 -2.078125 C 3.710938 -2.179688 3.5625 -2.257812 3.375 -2.3125 C 3.195312 -2.375 2.953125 -2.441406 2.640625 -2.515625 C 2.171875 -2.628906 1.785156 -2.742188 1.484375 -2.859375 C 1.179688 -2.972656 0.921875 -3.15625 0.703125 -3.40625 C 0.484375 -3.65625 0.375 -3.988281 0.375 -4.40625 C 0.375 -4.757812 0.472656 -5.082031 0.671875 -5.375 C 0.867188 -5.675781 1.160156 -5.910156 1.546875 -6.078125 C 1.941406 -6.253906 2.425781 -6.34375 3 -6.34375 C 3.394531 -6.34375 3.78125 -6.296875 4.15625 -6.203125 C 4.539062 -6.109375 4.878906 -5.972656 5.171875 -5.796875 L 4.71875 -4.6875 C 4.144531 -5.019531 3.570312 -5.1875 3 -5.1875 C 2.59375 -5.1875 2.289062 -5.117188 2.09375 -4.984375 C 1.90625 -4.859375 1.8125 -4.6875 1.8125 -4.46875 C 1.8125 -4.257812 1.921875 -4.101562 2.140625 -4 C 2.359375 -3.894531 2.695312 -3.789062 3.15625 -3.6875 C 3.632812 -3.570312 4.023438 -3.457031 4.328125 -3.34375 C 4.628906 -3.226562 4.890625 -3.050781 5.109375 -2.8125 C 5.328125 -2.570312 5.4375 -2.242188 5.4375 -1.828125 C 5.4375 -1.472656 5.335938 -1.144531 5.140625 -0.84375 C 4.941406 -0.550781 4.640625 -0.316406 4.234375 -0.140625 C 3.835938 0.0234375 3.351562 0.109375 2.78125 0.109375 Z M 2.78125 0.109375 "/></g></g></g><g fill="#3f432f" fill-opacity="1"><g transform="translate(151.810581, 303.34739)"><g><path d="M 3.765625 0.109375 C 3.109375 0.109375 2.519531 -0.03125 2 -0.3125 C 1.488281 -0.59375 1.082031 -0.976562 0.78125 -1.46875 C 0.488281 -1.957031 0.34375 -2.507812 0.34375 -3.125 C 0.34375 -3.726562 0.488281 -4.273438 0.78125 -4.765625 C 1.082031 -5.253906 1.488281 -5.640625 2 -5.921875 C 2.519531 -6.203125 3.109375 -6.34375 3.765625 -6.34375 C 4.410156 -6.34375 4.988281 -6.203125 5.5 -5.921875 C 6.019531 -5.640625 6.425781 -5.253906 6.71875 -4.765625 C 7.019531 -4.273438 7.171875 -3.726562 7.171875 -3.125 C 7.171875 -2.507812 7.019531 -1.957031 6.71875 -1.46875 C 6.425781 -0.976562 6.019531 -0.59375 5.5 -0.3125 C 4.988281 -0.03125 4.410156 0.109375 3.765625 0.109375 Z M 3.765625 -1.125 C 4.128906 -1.125 4.457031 -1.207031 4.75 -1.375 C 5.050781 -1.539062 5.285156 -1.773438 5.453125 -2.078125 C 5.617188 -2.378906 5.703125 -2.726562 5.703125 -3.125 C 5.703125 -3.507812 5.617188 -3.851562 5.453125 -4.15625 C 5.285156 -4.457031 5.050781 -4.691406 4.75 -4.859375 C 4.457031 -5.023438 4.128906 -5.109375 3.765625 -5.109375 C 3.390625 -5.109375 3.050781 -5.023438 2.75 -4.859375 C 2.457031 -4.691406 2.226562 -4.457031 2.0625 -4.15625 C 1.894531 -3.851562 1.8125 -3.507812 1.8125 -3.125 C 1.8125 -2.726562 1.894531 -2.378906 2.0625 -2.078125 C 2.226562 -1.773438 2.457031 -1.539062 2.75 -1.375 C 3.050781 -1.207031 3.390625 -1.125 3.765625 -1.125 Z M 3.765625 -1.125 "/></g></g></g><g fill="#3f432f" fill-opacity="1"><g transform="translate(160.760769, 303.34739)"><g><path d="M 6.453125 -6.234375 L 6.453125 0 L 5.265625 0 L 2.171875 -3.78125 L 2.171875 0 L 0.734375 0 L 0.734375 -6.234375 L 1.9375 -6.234375 L 5.03125 -2.453125 L 5.03125 -6.234375 Z M 6.453125 -6.234375 "/></g></g></g><g fill="#3f432f" fill-opacity="1"><g transform="translate(169.390755, 303.34739)"><g><path d="M 4.84375 -1.34375 L 1.953125 -1.34375 L 1.390625 0 L -0.078125 0 L 2.703125 -6.234375 L 4.125 -6.234375 L 6.90625 0 L 5.390625 0 Z M 4.390625 -2.4375 L 3.40625 -4.8125 L 2.40625 -2.4375 Z M 4.390625 -2.4375 "/></g></g></g><g fill="#3f432f" fill-opacity="1"><g transform="translate(177.647169, 303.34739)"><g><path d="M 0.734375 -6.234375 L 2.1875 -6.234375 L 2.1875 -1.171875 L 5.3125 -1.171875 L 5.3125 0 L 0.734375 0 Z M 0.734375 -6.234375 "/></g></g></g><g fill="#3f432f" fill-opacity="1"><g transform="translate(184.462661, 303.34739)"><g/></g></g><g fill="#3f432f" fill-opacity="1"><g transform="translate(188.422987, 303.34739)"><g><path d="M 4.84375 -1.34375 L 1.953125 -1.34375 L 1.390625 0 L -0.078125 0 L 2.703125 -6.234375 L 4.125 -6.234375 L 6.90625 0 L 5.390625 0 Z M 4.390625 -2.4375 L 3.40625 -4.8125 L 2.40625 -2.4375 Z M 4.390625 -2.4375 "/></g></g></g><g fill="#3f432f" fill-opacity="1"><g transform="translate(196.6794, 303.34739)"><g><path d="M 0.734375 -6.234375 L 2.1875 -6.234375 L 2.1875 0 L 0.734375 0 Z M 0.734375 -6.234375 "/></g></g></g><g fill="#3f432f" fill-opacity="1"><g transform="translate(201.039985, 303.34739)"><g/></g></g><g fill="#3f432f" fill-opacity="1"><g transform="translate(205.000311, 303.34739)"><g><path d="M 2.03125 -5.0625 L 0.03125 -5.0625 L 0.03125 -6.234375 L 5.46875 -6.234375 L 5.46875 -5.0625 L 3.46875 -5.0625 L 3.46875 0 L 2.03125 0 Z M 2.03125 -5.0625 "/></g></g></g><g fill="#3f432f" fill-opacity="1"><g transform="translate(211.940324, 303.34739)"><g><path d="M 4.71875 0 L 3.515625 -1.734375 L 2.1875 -1.734375 L 2.1875 0 L 0.734375 0 L 0.734375 -6.234375 L 3.4375 -6.234375 C 3.988281 -6.234375 4.46875 -6.140625 4.875 -5.953125 C 5.28125 -5.773438 5.59375 -5.515625 5.8125 -5.171875 C 6.03125 -4.835938 6.140625 -4.4375 6.140625 -3.96875 C 6.140625 -3.507812 6.03125 -3.109375 5.8125 -2.765625 C 5.59375 -2.429688 5.273438 -2.175781 4.859375 -2 L 6.265625 0 Z M 4.6875 -3.96875 C 4.6875 -4.320312 4.570312 -4.59375 4.34375 -4.78125 C 4.125 -4.96875 3.796875 -5.0625 3.359375 -5.0625 L 2.1875 -5.0625 L 2.1875 -2.890625 L 3.359375 -2.890625 C 3.796875 -2.890625 4.125 -2.984375 4.34375 -3.171875 C 4.570312 -3.359375 4.6875 -3.625 4.6875 -3.96875 Z M 4.6875 -3.96875 "/></g></g></g><g fill="#3f432f" fill-opacity="1"><g transform="translate(219.920999, 303.34739)"><g><path d="M 0.734375 -6.234375 L 2.1875 -6.234375 L 2.1875 0 L 0.734375 0 Z M 0.734375 -6.234375 "/></g></g></g><g fill="#3f432f" fill-opacity="1"><g transform="translate(224.281584, 303.34739)"><g><path d="M 3.4375 -6.234375 C 3.988281 -6.234375 4.46875 -6.140625 4.875 -5.953125 C 5.28125 -5.773438 5.59375 -5.515625 5.8125 -5.171875 C 6.03125 -4.835938 6.140625 -4.4375 6.140625 -3.96875 C 6.140625 -3.507812 6.03125 -3.109375 5.8125 -2.765625 C 5.59375 -2.429688 5.28125 -2.171875 4.875 -1.984375 C 4.46875 -1.804688 3.988281 -1.71875 3.4375 -1.71875 L 2.1875 -1.71875 L 2.1875 0 L 0.734375 0 L 0.734375 -6.234375 Z M 3.359375 -2.890625 C 3.796875 -2.890625 4.125 -2.984375 4.34375 -3.171875 C 4.570312 -3.359375 4.6875 -3.625 4.6875 -3.96875 C 4.6875 -4.320312 4.570312 -4.59375 4.34375 -4.78125 C 4.125 -4.96875 3.796875 -5.0625 3.359375 -5.0625 L 2.1875 -5.0625 L 2.1875 -2.890625 Z M 3.359375 -2.890625 "/></g></g></g><g fill="#3f432f" fill-opacity="1"><g transform="translate(232.235584, 303.34739)"><g/></g></g><g fill="#3f432f" fill-opacity="1"><g transform="translate(236.195909, 303.34739)"><g><path d="M 3.4375 -6.234375 C 3.988281 -6.234375 4.46875 -6.140625 4.875 -5.953125 C 5.28125 -5.773438 5.59375 -5.515625 5.8125 -5.171875 C 6.03125 -4.835938 6.140625 -4.4375 6.140625 -3.96875 C 6.140625 -3.507812 6.03125 -3.109375 5.8125 -2.765625 C 5.59375 -2.429688 5.28125 -2.171875 4.875 -1.984375 C 4.46875 -1.804688 3.988281 -1.71875 3.4375 -1.71875 L 2.1875 -1.71875 L 2.1875 0 L 0.734375 0 L 0.734375 -6.234375 Z M 3.359375 -2.890625 C 3.796875 -2.890625 4.125 -2.984375 4.34375 -3.171875 C 4.570312 -3.359375 4.6875 -3.625 4.6875 -3.96875 C 4.6875 -4.320312 4.570312 -4.59375 4.34375 -4.78125 C 4.125 -4.96875 3.796875 -5.0625 3.359375 -5.0625 L 2.1875 -5.0625 L 2.1875 -2.890625 Z M 3.359375 -2.890625 "/></g></g></g><g fill="#3f432f" fill-opacity="1"><g transform="translate(244.149909, 303.34739)"><g><path d="M 0.734375 -6.234375 L 2.1875 -6.234375 L 2.1875 -1.171875 L 5.3125 -1.171875 L 5.3125 0 L 0.734375 0 Z M 0.734375 -6.234375 "/></g></g></g><g fill="#3f432f" fill-opacity="1"><g transform="translate(250.965401, 303.34739)"><g><path d="M 4.84375 -1.34375 L 1.953125 -1.34375 L 1.390625 0 L -0.078125 0 L 2.703125 -6.234375 L 4.125 -6.234375 L 6.90625 0 L 5.390625 0 Z M 4.390625 -2.4375 L 3.40625 -4.8125 L 2.40625 -2.4375 Z M 4.390625 -2.4375 "/></g></g></g><g fill="#3f432f" fill-opacity="1"><g transform="translate(259.221814, 303.34739)"><g><path d="M 6.453125 -6.234375 L 6.453125 0 L 5.265625 0 L 2.171875 -3.78125 L 2.171875 0 L 0.734375 0 L 0.734375 -6.234375 L 1.9375 -6.234375 L 5.03125 -2.453125 L 5.03125 -6.234375 Z M 6.453125 -6.234375 "/></g></g></g><g fill="#3f432f" fill-opacity="1"><g transform="translate(267.851811, 303.34739)"><g><path d="M 6.453125 -6.234375 L 6.453125 0 L 5.265625 0 L 2.171875 -3.78125 L 2.171875 0 L 0.734375 0 L 0.734375 -6.234375 L 1.9375 -6.234375 L 5.03125 -2.453125 L 5.03125 -6.234375 Z M 6.453125 -6.234375 "/></g></g></g><g fill="#3f432f" fill-opacity="1"><g transform="translate(276.481807, 303.34739)"><g><path d="M 5.5625 -1.15625 L 5.5625 0 L 0.734375 0 L 0.734375 -6.234375 L 5.453125 -6.234375 L 5.453125 -5.078125 L 2.171875 -5.078125 L 2.171875 -3.71875 L 5.0625 -3.71875 L 5.0625 -2.59375 L 2.171875 -2.59375 L 2.171875 -1.15625 Z M 5.5625 -1.15625 "/></g></g></g><g fill="#3f432f" fill-opacity="1"><g transform="translate(283.893239, 303.34739)"><g><path d="M 4.71875 0 L 3.515625 -1.734375 L 2.1875 -1.734375 L 2.1875 0 L 0.734375 0 L 0.734375 -6.234375 L 3.4375 -6.234375 C 3.988281 -6.234375 4.46875 -6.140625 4.875 -5.953125 C 5.28125 -5.773438 5.59375 -5.515625 5.8125 -5.171875 C 6.03125 -4.835938 6.140625 -4.4375 6.140625 -3.96875 C 6.140625 -3.507812 6.03125 -3.109375 5.8125 -2.765625 C 5.59375 -2.429688 5.273438 -2.175781 4.859375 -2 L 6.265625 0 Z M 4.6875 -3.96875 C 4.6875 -4.320312 4.570312 -4.59375 4.34375 -4.78125 C 4.125 -4.96875 3.796875 -5.0625 3.359375 -5.0625 L 2.1875 -5.0625 L 2.1875 -2.890625 L 3.359375 -2.890625 C 3.796875 -2.890625 4.125 -2.984375 4.34375 -3.171875 C 4.570312 -3.359375 4.6875 -3.625 4.6875 -3.96875 Z M 4.6875 -3.96875 "/></g></g></g></svg>